{
	"asset":{
		"generator":"Khronos glTF Blender I/O v4.2.69",
		"version":"2.0"
	},
	"extensionsUsed":[
		"KHR_materials_specular"
	],
	"scene":0,
	"scenes":[
		{
			"name":"Scene",
			"nodes":[
				0,
				1,
				2
			]
		}
	],
	"nodes":[
		{
			"name":"Stump",
			"rotation":[
				0.7071068286895752,
				0,
				0,
				0.7071068286895752
			],
			"scale":[
				0.025627870112657547,
				0.025627870112657547,
				0.025627870112657547
			],
			"translation":[
				-138.3492431640625,
				-0.9219486713409424,
				1.0657079219818115
			]
		},
		{
			"name":"Branches",
			"rotation":[
				0.7071068286895752,
				0,
				0,
				0.7071068286895752
			],
			"scale":[
				0.025627870112657547,
				0.025627870112657547,
				0.025627870112657547
			],
			"translation":[
				-138.3492431640625,
				-0.9219486713409424,
				1.0657079219818115
			]
		},
		{
			"mesh":0,
			"name":"Cube.006"
		}
	],
	"materials":[
		{
			"doubleSided":true,
			"extensions":{
				"KHR_materials_specular":{
					"specularColorFactor":[
						2.0,
						2.0,
						2.0
					]
				}
			},
			"name":"Bowl1.001",
			"pbrMetallicRoughness":{
				"baseColorFactor":[
					0.5,
					0.5,
					0.5,
					1
				]
			}
		},
		{
			"doubleSided":true,
			"extensions":{
				"KHR_materials_specular":{
					"specularColorFactor":[
						2.0,
						2.0,
						2.0
					]
				}
			},
			"name":"M_EN_ToL",
			"pbrMetallicRoughness":{
				"baseColorFactor":[
					0.6293706297874451,
					0.6293706297874451,
					0.6293706297874451,
					1
				],
				"roughnessFactor":0.5527864098548889
			}
		},
		{
			"doubleSided":true,
			"name":"M_EN_Pine",
			"pbrMetallicRoughness":{
				"baseColorFactor":[
					0.5,
					0.5,
					0.5,
					1
				],
				"metallicFactor":0,
				"roughnessFactor":0.5527864098548889
			}
		},
		{
			"doubleSided":true,
			"name":"M_EN_ForestWilderness",
			"pbrMetallicRoughness":{
				"baseColorFactor":[
					0.6709677577018738,
					0.6709677577018738,
					0.6709677577018738,
					1
				],
				"metallicFactor":0,
				"roughnessFactor":0.5527864098548889
			}
		},
		{
			"doubleSided":true,
			"name":"M_EN_DeadTree",
			"pbrMetallicRoughness":{
				"baseColorFactor":[
					0.5,
					0.5,
					0.5,
					1
				],
				"metallicFactor":0,
				"roughnessFactor":0.5527864098548889
			}
		},
		{
			"doubleSided":true,
			"name":"M_EN_Totem",
			"normalTexture":{
				"index":0
			},
			"pbrMetallicRoughness":{
				"baseColorFactor":[
					0.5,
					0.5,
					0.5,
					1
				],
				"metallicFactor":0,
				"roughnessFactor":0.5527864098548889
			}
		},
		{
			"doubleSided":true,
			"name":"M_RocksWC",
			"normalTexture":{
				"index":1
			},
			"pbrMetallicRoughness":{
				"baseColorTexture":{
					"index":2
				},
				"metallicRoughnessTexture":{
					"index":3
				}
			}
		},
		{
			"doubleSided":true,
			"name":"M_RocksWC.001",
			"normalTexture":{
				"index":4
			},
			"pbrMetallicRoughness":{
				"baseColorTexture":{
					"index":5
				},
				"metallicRoughnessTexture":{
					"index":6
				}
			}
		},
		{
			"doubleSided":true,
			"extensions":{
				"KHR_materials_specular":{
					"specularColorFactor":[
						2.0,
						2.0,
						2.0
					]
				}
			},
			"name":"M_Rocks_Decorative",
			"normalTexture":{
				"index":7
			},
			"pbrMetallicRoughness":{
				"baseColorTexture":{
					"index":8
				},
				"metallicRoughnessTexture":{
					"index":9
				}
			}
		},
		{
			"name":"fallback Material",
			"pbrMetallicRoughness":{
				"baseColorFactor":[
					0.45098039507865906,
					0.45098039507865906,
					0.45098039507865906,
					1
				]
			}
		},
		{
			"name":"fallback Material.003",
			"pbrMetallicRoughness":{
				"baseColorFactor":[
					0.45098039507865906,
					0.45098039507865906,
					0.45098039507865906,
					1
				]
			}
		},
		{
			"name":"fallback Material.004",
			"pbrMetallicRoughness":{
				"baseColorFactor":[
					0.45098039507865906,
					0.45098039507865906,
					0.45098039507865906,
					1
				]
			}
		},
		{
			"name":"fallback Material.005",
			"pbrMetallicRoughness":{
				"baseColorFactor":[
					0.45098039507865906,
					0.45098039507865906,
					0.45098039507865906,
					1
				]
			}
		},
		{
			"name":"fallback Material.006",
			"pbrMetallicRoughness":{
				"baseColorFactor":[
					0.45098039507865906,
					0.45098039507865906,
					0.45098039507865906,
					1
				]
			}
		},
		{
			"name":"fallback Material.007",
			"pbrMetallicRoughness":{
				"baseColorFactor":[
					0.800000011920929,
					0.800000011920929,
					0.800000011920929,
					1
				]
			}
		},
		{
			"name":"fallback Material.008",
			"pbrMetallicRoughness":{
				"baseColorFactor":[
					0.800000011920929,
					0.800000011920929,
					0.800000011920929,
					1
				]
			}
		},
		{
			"name":"fallback Material.009",
			"pbrMetallicRoughness":{
				"baseColorFactor":[
					0.800000011920929,
					0.800000011920929,
					0.800000011920929,
					1
				]
			}
		},
		{
			"name":"fallback Material.010",
			"pbrMetallicRoughness":{
				"baseColorFactor":[
					0.800000011920929,
					0.800000011920929,
					0.800000011920929,
					1
				]
			}
		},
		{
			"name":"fallback Material.011",
			"pbrMetallicRoughness":{
				"baseColorFactor":[
					0.800000011920929,
					0.800000011920929,
					0.800000011920929,
					1
				]
			}
		},
		{
			"name":"fallback Material.012",
			"pbrMetallicRoughness":{
				"baseColorFactor":[
					0.800000011920929,
					0.800000011920929,
					0.800000011920929,
					1
				]
			}
		},
		{
			"name":"fallback Material.013",
			"pbrMetallicRoughness":{
				"baseColorFactor":[
					0.800000011920929,
					0.800000011920929,
					0.800000011920929,
					1
				]
			}
		},
		{
			"name":"fallback Material.014",
			"pbrMetallicRoughness":{
				"baseColorFactor":[
					0.800000011920929,
					0.800000011920929,
					0.800000011920929,
					1
				]
			}
		},
		{
			"name":"fallback Material.015",
			"pbrMetallicRoughness":{
				"baseColorFactor":[
					0.45098039507865906,
					0.45098039507865906,
					0.45098039507865906,
					1
				]
			}
		},
		{
			"name":"fallback Material.016",
			"pbrMetallicRoughness":{
				"baseColorFactor":[
					0.45098039507865906,
					0.45098039507865906,
					0.45098039507865906,
					1
				]
			}
		},
		{
			"name":"fallback Material.017",
			"pbrMetallicRoughness":{
				"baseColorFactor":[
					0.45098039507865906,
					0.45098039507865906,
					0.45098039507865906,
					1
				]
			}
		}
	],
	"meshes":[
		{
			"name":"Cube.010",
			"primitives":[
				{
					"attributes":{
						"POSITION":0,
						"NORMAL":1,
						"TEXCOORD_0":2,
						"TEXCOORD_1":3,
						"TEXCOORD_2":4,
						"COLOR_0":5,
						"COLOR_1":6
					},
					"indices":7,
					"material":0
				},
				{
					"attributes":{
						"POSITION":8,
						"NORMAL":9,
						"TEXCOORD_0":10,
						"TEXCOORD_1":11,
						"TEXCOORD_2":12,
						"COLOR_0":13,
						"COLOR_1":14
					},
					"indices":15,
					"material":1
				},
				{
					"attributes":{
						"POSITION":16,
						"NORMAL":17,
						"TEXCOORD_0":18,
						"TEXCOORD_1":19,
						"TEXCOORD_2":20,
						"COLOR_0":21,
						"COLOR_1":22
					},
					"indices":23,
					"material":2
				},
				{
					"attributes":{
						"POSITION":24,
						"NORMAL":25,
						"TEXCOORD_0":26,
						"TEXCOORD_1":27,
						"TEXCOORD_2":28,
						"COLOR_0":29,
						"COLOR_1":30
					},
					"indices":31,
					"material":3
				},
				{
					"attributes":{
						"POSITION":32,
						"NORMAL":33,
						"TEXCOORD_0":34,
						"TEXCOORD_1":35,
						"TEXCOORD_2":36,
						"COLOR_0":37,
						"COLOR_1":38
					},
					"indices":39,
					"material":4
				},
				{
					"attributes":{
						"POSITION":40,
						"NORMAL":41,
						"TEXCOORD_0":42,
						"TEXCOORD_1":43,
						"TEXCOORD_2":44,
						"COLOR_0":45,
						"COLOR_1":46
					},
					"indices":47,
					"material":5
				},
				{
					"attributes":{
						"POSITION":48,
						"NORMAL":49,
						"TEXCOORD_0":50,
						"TEXCOORD_1":51,
						"TEXCOORD_2":52,
						"COLOR_0":53,
						"COLOR_1":54
					},
					"indices":55,
					"material":6
				},
				{
					"attributes":{
						"POSITION":56,
						"NORMAL":57,
						"TEXCOORD_0":58,
						"TEXCOORD_1":59,
						"TEXCOORD_2":60,
						"COLOR_0":61,
						"COLOR_1":62
					},
					"indices":63,
					"material":7
				},
				{
					"attributes":{
						"POSITION":64,
						"NORMAL":65,
						"TEXCOORD_0":66,
						"TEXCOORD_1":67,
						"TEXCOORD_2":68,
						"COLOR_0":69,
						"COLOR_1":70
					},
					"indices":71,
					"material":8
				},
				{
					"attributes":{
						"POSITION":72,
						"NORMAL":73,
						"TEXCOORD_0":74,
						"TEXCOORD_1":75,
						"TEXCOORD_2":76,
						"COLOR_0":77,
						"COLOR_1":78
					},
					"indices":79,
					"material":9
				},
				{
					"attributes":{
						"POSITION":80,
						"NORMAL":81,
						"TEXCOORD_0":82,
						"TEXCOORD_1":83,
						"TEXCOORD_2":84,
						"COLOR_0":85,
						"COLOR_1":86
					},
					"indices":87,
					"material":10
				},
				{
					"attributes":{
						"POSITION":88,
						"NORMAL":89,
						"TEXCOORD_0":90,
						"TEXCOORD_1":91,
						"TEXCOORD_2":92,
						"COLOR_0":93,
						"COLOR_1":94
					},
					"indices":95,
					"material":11
				},
				{
					"attributes":{
						"POSITION":96,
						"NORMAL":97,
						"TEXCOORD_0":98,
						"TEXCOORD_1":99,
						"TEXCOORD_2":100,
						"COLOR_0":101,
						"COLOR_1":102
					},
					"indices":79,
					"material":12
				},
				{
					"attributes":{
						"POSITION":103,
						"NORMAL":104,
						"TEXCOORD_0":105,
						"TEXCOORD_1":106,
						"TEXCOORD_2":107,
						"COLOR_0":108,
						"COLOR_1":109
					},
					"indices":110,
					"material":13
				},
				{
					"attributes":{
						"POSITION":111,
						"NORMAL":112,
						"TEXCOORD_0":113,
						"TEXCOORD_1":114,
						"TEXCOORD_2":115,
						"COLOR_0":116,
						"COLOR_1":117
					},
					"indices":118,
					"material":14
				},
				{
					"attributes":{
						"POSITION":119,
						"NORMAL":120,
						"TEXCOORD_0":121,
						"TEXCOORD_1":122,
						"TEXCOORD_2":123,
						"COLOR_0":124,
						"COLOR_1":125
					},
					"indices":126,
					"material":15
				},
				{
					"attributes":{
						"POSITION":127,
						"NORMAL":128,
						"TEXCOORD_0":129,
						"TEXCOORD_1":130,
						"TEXCOORD_2":131,
						"COLOR_0":132,
						"COLOR_1":133
					},
					"indices":134,
					"material":16
				},
				{
					"attributes":{
						"POSITION":135,
						"NORMAL":136,
						"TEXCOORD_0":137,
						"TEXCOORD_1":138,
						"TEXCOORD_2":139,
						"COLOR_0":140,
						"COLOR_1":141
					},
					"indices":142,
					"material":17
				},
				{
					"attributes":{
						"POSITION":143,
						"NORMAL":144,
						"TEXCOORD_0":145,
						"TEXCOORD_1":146,
						"TEXCOORD_2":147,
						"COLOR_0":148,
						"COLOR_1":149
					},
					"indices":150,
					"material":18
				},
				{
					"attributes":{
						"POSITION":151,
						"NORMAL":152,
						"TEXCOORD_0":153,
						"TEXCOORD_1":154,
						"TEXCOORD_2":155,
						"COLOR_0":156,
						"COLOR_1":157
					},
					"indices":158,
					"material":19
				},
				{
					"attributes":{
						"POSITION":159,
						"NORMAL":160,
						"TEXCOORD_0":161,
						"TEXCOORD_1":162,
						"TEXCOORD_2":163,
						"COLOR_0":164,
						"COLOR_1":165
					},
					"indices":166,
					"material":20
				},
				{
					"attributes":{
						"POSITION":167,
						"NORMAL":168,
						"TEXCOORD_0":169,
						"TEXCOORD_1":170,
						"TEXCOORD_2":171,
						"COLOR_0":172,
						"COLOR_1":173
					},
					"indices":174,
					"material":21
				},
				{
					"attributes":{
						"POSITION":175,
						"NORMAL":176,
						"TEXCOORD_0":177,
						"TEXCOORD_1":178,
						"TEXCOORD_2":179,
						"COLOR_0":180,
						"COLOR_1":181
					},
					"indices":182,
					"material":22
				},
				{
					"attributes":{
						"POSITION":183,
						"NORMAL":184,
						"TEXCOORD_0":185,
						"TEXCOORD_1":186,
						"TEXCOORD_2":187,
						"COLOR_0":188,
						"COLOR_1":189
					},
					"indices":190,
					"material":23
				},
				{
					"attributes":{
						"POSITION":191,
						"NORMAL":192,
						"TEXCOORD_0":193,
						"TEXCOORD_1":194,
						"TEXCOORD_2":195,
						"COLOR_0":196,
						"COLOR_1":197
					},
					"indices":198,
					"material":24
				}
			]
		}
	],
	"textures":[
		{
			"sampler":0,
			"source":0
		},
		{
			"sampler":0,
			"source":1
		},
		{
			"sampler":0,
			"source":2
		},
		{
			"sampler":0,
			"source":3
		},
		{
			"sampler":0,
			"source":1
		},
		{
			"sampler":0,
			"source":2
		},
		{
			"sampler":0,
			"source":3
		},
		{
			"sampler":0,
			"source":4
		},
		{
			"sampler":0,
			"source":5
		},
		{
			"sampler":0,
			"source":6
		}
	],
	"images":[
		{
			"mimeType":"image/png",
			"name":"T_EN_totems UVS_Normal",
			"uri":"T_EN_totems%20UVS_Normal.png"
		},
		{
			"mimeType":"image/png",
			"name":"T_EN_Rock_W_C_Normal",
			"uri":"T_EN_Rock_W_C_Normal.png"
		},
		{
			"mimeType":"image/png",
			"name":"T_EN_Rock_W_C_BaseColor",
			"uri":"T_EN_Rock_W_C_BaseColor.png"
		},
		{
			"mimeType":"image/png",
			"name":"T_EN_Rock_W_C_OcclusionRoughnessMetallic",
			"uri":"T_EN_Rock_W_C_OcclusionRoughnessMetallic.png"
		},
		{
			"mimeType":"image/png",
			"name":"T_PR_Rock_Decorative_Normal",
			"uri":"T_PR_Rock_Decorative_Normal.png"
		},
		{
			"mimeType":"image/png",
			"name":"T_PR_Rock_Decorative_BaseColor",
			"uri":"T_PR_Rock_Decorative_BaseColor.png"
		},
		{
			"mimeType":"image/png",
			"name":"T_PR_Rock_Decorative_OcclusionRoughnessMetallic",
			"uri":"T_PR_Rock_Decorative_OcclusionRoughnessMetallic.png"
		}
	],
	"accessors":[
		{
			"bufferView":0,
			"componentType":5126,
			"count":2793944,
			"max":[
				45.20541000366211,
				10.33049201965332,
				11.982397079467773
			],
			"min":[
				-184.31089782714844,
				-4.545663356781006,
				-21.08148765563965
			],
			"type":"VEC3"
		},
		{
			"bufferView":1,
			"componentType":5126,
			"count":2793944,
			"type":"VEC3"
		},
		{
			"bufferView":2,
			"componentType":5126,
			"count":2793944,
			"type":"VEC2"
		},
		{
			"bufferView":3,
			"componentType":5126,
			"count":2793944,
			"type":"VEC2"
		},
		{
			"bufferView":4,
			"componentType":5126,
			"count":2793944,
			"type":"VEC2"
		},
		{
			"bufferView":5,
			"componentType":5121,
			"count":2793944,
			"normalized":true,
			"type":"VEC4"
		},
		{
			"bufferView":6,
			"componentType":5126,
			"count":2793944,
			"type":"VEC3"
		},
		{
			"bufferView":7,
			"componentType":5125,
			"count":4099821,
			"type":"SCALAR"
		},
		{
			"bufferView":8,
			"componentType":5126,
			"count":1987,
			"max":[
				-105.26283264160156,
				2.7342090606689453,
				2.109898090362549
			],
			"min":[
				-107.51995086669922,
				0.02270934358239174,
				-0.40978384017944336
			],
			"type":"VEC3"
		},
		{
			"bufferView":9,
			"componentType":5126,
			"count":1987,
			"type":"VEC3"
		},
		{
			"bufferView":10,
			"componentType":5126,
			"count":1987,
			"type":"VEC2"
		},
		{
			"bufferView":11,
			"componentType":5126,
			"count":1987,
			"type":"VEC2"
		},
		{
			"bufferView":12,
			"componentType":5126,
			"count":1987,
			"type":"VEC2"
		},
		{
			"bufferView":13,
			"componentType":5121,
			"count":1987,
			"normalized":true,
			"type":"VEC4"
		},
		{
			"bufferView":14,
			"componentType":5126,
			"count":1987,
			"type":"VEC3"
		},
		{
			"bufferView":15,
			"componentType":5123,
			"count":9267,
			"type":"SCALAR"
		},
		{
			"bufferView":16,
			"componentType":5126,
			"count":3438,
			"max":[
				-108.50453186035156,
				5.2671332359313965,
				1.7602089643478394
			],
			"min":[
				-127.9148941040039,
				-1.0525132417678833,
				-2.0140771865844727
			],
			"type":"VEC3"
		},
		{
			"bufferView":17,
			"componentType":5126,
			"count":3438,
			"type":"VEC3"
		},
		{
			"bufferView":18,
			"componentType":5126,
			"count":3438,
			"type":"VEC2"
		},
		{
			"bufferView":19,
			"componentType":5126,
			"count":3438,
			"type":"VEC2"
		},
		{
			"bufferView":20,
			"componentType":5126,
			"count":3438,
			"type":"VEC2"
		},
		{
			"bufferView":21,
			"componentType":5121,
			"count":3438,
			"normalized":true,
			"type":"VEC4"
		},
		{
			"bufferView":22,
			"componentType":5126,
			"count":3438,
			"type":"VEC3"
		},
		{
			"bufferView":23,
			"componentType":5123,
			"count":13110,
			"type":"SCALAR"
		},
		{
			"bufferView":24,
			"componentType":5126,
			"count":2131,
			"max":[
				-131.9351043701172,
				4.24315881729126,
				2.0729362964630127
			],
			"min":[
				-139.5610809326172,
				-0.9219492077827454,
				-1.8586184978485107
			],
			"type":"VEC3"
		},
		{
			"bufferView":25,
			"componentType":5126,
			"count":2131,
			"type":"VEC3"
		},
		{
			"bufferView":26,
			"componentType":5126,
			"count":2131,
			"type":"VEC2"
		},
		{
			"bufferView":27,
			"componentType":5126,
			"count":2131,
			"type":"VEC2"
		},
		{
			"bufferView":28,
			"componentType":5126,
			"count":2131,
			"type":"VEC2"
		},
		{
			"bufferView":29,
			"componentType":5121,
			"count":2131,
			"normalized":true,
			"type":"VEC4"
		},
		{
			"bufferView":30,
			"componentType":5126,
			"count":2131,
			"type":"VEC3"
		},
		{
			"bufferView":31,
			"componentType":5123,
			"count":9816,
			"type":"SCALAR"
		},
		{
			"bufferView":32,
			"componentType":5126,
			"count":11353,
			"max":[
				-140.5540313720703,
				4.413743495941162,
				1.2446324825286865
			],
			"min":[
				-146.20106506347656,
				-0.5683627724647522,
				-4.465405464172363
			],
			"type":"VEC3"
		},
		{
			"bufferView":33,
			"componentType":5126,
			"count":11353,
			"type":"VEC3"
		},
		{
			"bufferView":34,
			"componentType":5126,
			"count":11353,
			"type":"VEC2"
		},
		{
			"bufferView":35,
			"componentType":5126,
			"count":11353,
			"type":"VEC2"
		},
		{
			"bufferView":36,
			"componentType":5126,
			"count":11353,
			"type":"VEC2"
		},
		{
			"bufferView":37,
			"componentType":5121,
			"count":11353,
			"normalized":true,
			"type":"VEC4"
		},
		{
			"bufferView":38,
			"componentType":5126,
			"count":11353,
			"type":"VEC3"
		},
		{
			"bufferView":39,
			"componentType":5123,
			"count":16935,
			"type":"SCALAR"
		},
		{
			"bufferView":40,
			"componentType":5126,
			"count":11933,
			"max":[
				132.1503143310547,
				8.410720825195312,
				78.67333984375
			],
			"min":[
				-127.70512390136719,
				-3.401392698287964,
				-2.6741108894348145
			],
			"type":"VEC3"
		},
		{
			"bufferView":41,
			"componentType":5126,
			"count":11933,
			"type":"VEC3"
		},
		{
			"bufferView":42,
			"componentType":5126,
			"count":11933,
			"type":"VEC2"
		},
		{
			"bufferView":43,
			"componentType":5126,
			"count":11933,
			"type":"VEC2"
		},
		{
			"bufferView":44,
			"componentType":5126,
			"count":11933,
			"type":"VEC2"
		},
		{
			"bufferView":45,
			"componentType":5121,
			"count":11933,
			"normalized":true,
			"type":"VEC4"
		},
		{
			"bufferView":46,
			"componentType":5126,
			"count":11933,
			"type":"VEC3"
		},
		{
			"bufferView":47,
			"componentType":5123,
			"count":49161,
			"type":"SCALAR"
		},
		{
			"bufferView":48,
			"componentType":5126,
			"count":14447,
			"max":[
				31.86624526977539,
				9.836686134338379,
				78.58858489990234
			],
			"min":[
				-69.11175537109375,
				2.0167295932769775,
				73.09440612792969
			],
			"type":"VEC3"
		},
		{
			"bufferView":49,
			"componentType":5126,
			"count":14447,
			"type":"VEC3"
		},
		{
			"bufferView":50,
			"componentType":5126,
			"count":14447,
			"type":"VEC2"
		},
		{
			"bufferView":51,
			"componentType":5126,
			"count":14447,
			"type":"VEC2"
		},
		{
			"bufferView":52,
			"componentType":5126,
			"count":14447,
			"type":"VEC2"
		},
		{
			"bufferView":53,
			"componentType":5121,
			"count":14447,
			"normalized":true,
			"type":"VEC4"
		},
		{
			"bufferView":54,
			"componentType":5126,
			"count":14447,
			"type":"VEC3"
		},
		{
			"bufferView":55,
			"componentType":5123,
			"count":31065,
			"type":"SCALAR"
		},
		{
			"bufferView":56,
			"componentType":5126,
			"count":22983,
			"max":[
				77.32267761230469,
				7.050024509429932,
				81.38175201416016
			],
			"min":[
				-93.92443084716797,
				0.18716910481452942,
				71.41302490234375
			],
			"type":"VEC3"
		},
		{
			"bufferView":57,
			"componentType":5126,
			"count":22983,
			"type":"VEC3"
		},
		{
			"bufferView":58,
			"componentType":5126,
			"count":22983,
			"type":"VEC2"
		},
		{
			"bufferView":59,
			"componentType":5126,
			"count":22983,
			"type":"VEC2"
		},
		{
			"bufferView":60,
			"componentType":5126,
			"count":22983,
			"type":"VEC2"
		},
		{
			"bufferView":61,
			"componentType":5121,
			"count":22983,
			"normalized":true,
			"type":"VEC4"
		},
		{
			"bufferView":62,
			"componentType":5126,
			"count":22983,
			"type":"VEC3"
		},
		{
			"bufferView":63,
			"componentType":5123,
			"count":40122,
			"type":"SCALAR"
		},
		{
			"bufferView":64,
			"componentType":5126,
			"count":1607,
			"max":[
				-99.95918273925781,
				3.453514814376831,
				77.83258819580078
			],
			"min":[
				-106.82471466064453,
				2.3688035011291504,
				76.9483871459961
			],
			"type":"VEC3"
		},
		{
			"bufferView":65,
			"componentType":5126,
			"count":1607,
			"type":"VEC3"
		},
		{
			"bufferView":66,
			"componentType":5126,
			"count":1607,
			"type":"VEC2"
		},
		{
			"bufferView":67,
			"componentType":5126,
			"count":1607,
			"type":"VEC2"
		},
		{
			"bufferView":68,
			"componentType":5126,
			"count":1607,
			"type":"VEC2"
		},
		{
			"bufferView":69,
			"componentType":5121,
			"count":1607,
			"normalized":true,
			"type":"VEC4"
		},
		{
			"bufferView":70,
			"componentType":5126,
			"count":1607,
			"type":"VEC3"
		},
		{
			"bufferView":71,
			"componentType":5123,
			"count":8436,
			"type":"SCALAR"
		},
		{
			"bufferView":72,
			"componentType":5126,
			"count":1392,
			"max":[
				0.1562664955854416,
				0.20613540709018707,
				0.1365344077348709
			],
			"min":[
				-0.15186168253421783,
				-0.5020248889923096,
				-0.1359775811433792
			],
			"type":"VEC3"
		},
		{
			"bufferView":73,
			"componentType":5126,
			"count":1392,
			"type":"VEC3"
		},
		{
			"bufferView":74,
			"componentType":5126,
			"count":1392,
			"type":"VEC2"
		},
		{
			"bufferView":75,
			"componentType":5126,
			"count":1392,
			"type":"VEC2"
		},
		{
			"bufferView":76,
			"componentType":5126,
			"count":1392,
			"type":"VEC2"
		},
		{
			"bufferView":77,
			"componentType":5121,
			"count":1392,
			"normalized":true,
			"type":"VEC4"
		},
		{
			"bufferView":78,
			"componentType":5126,
			"count":1392,
			"type":"VEC3"
		},
		{
			"bufferView":79,
			"componentType":5123,
			"count":7398,
			"type":"SCALAR"
		},
		{
			"bufferView":80,
			"componentType":5126,
			"count":1645,
			"max":[
				48.237911224365234,
				1.6020452976226807,
				1.6123082637786865
			],
			"min":[
				47.56480407714844,
				0.9943273067474365,
				0.9898537397384644
			],
			"type":"VEC3"
		},
		{
			"bufferView":81,
			"componentType":5126,
			"count":1645,
			"type":"VEC3"
		},
		{
			"bufferView":82,
			"componentType":5126,
			"count":1645,
			"type":"VEC2"
		},
		{
			"bufferView":83,
			"componentType":5126,
			"count":1645,
			"type":"VEC2"
		},
		{
			"bufferView":84,
			"componentType":5126,
			"count":1645,
			"type":"VEC2"
		},
		{
			"bufferView":85,
			"componentType":5121,
			"count":1645,
			"normalized":true,
			"type":"VEC4"
		},
		{
			"bufferView":86,
			"componentType":5126,
			"count":1645,
			"type":"VEC3"
		},
		{
			"bufferView":87,
			"componentType":5123,
			"count":8844,
			"type":"SCALAR"
		},
		{
			"bufferView":88,
			"componentType":5126,
			"count":1562,
			"max":[
				48.947357177734375,
				1.6783077716827393,
				1.0344258546829224
			],
			"min":[
				48.27425003051758,
				0.7394901514053345,
				0.41197124123573303
			],
			"type":"VEC3"
		},
		{
			"bufferView":89,
			"componentType":5126,
			"count":1562,
			"type":"VEC3"
		},
		{
			"bufferView":90,
			"componentType":5126,
			"count":1562,
			"type":"VEC2"
		},
		{
			"bufferView":91,
			"componentType":5126,
			"count":1562,
			"type":"VEC2"
		},
		{
			"bufferView":92,
			"componentType":5126,
			"count":1562,
			"type":"VEC2"
		},
		{
			"bufferView":93,
			"componentType":5121,
			"count":1562,
			"normalized":true,
			"type":"VEC4"
		},
		{
			"bufferView":94,
			"componentType":5126,
			"count":1562,
			"type":"VEC3"
		},
		{
			"bufferView":95,
			"componentType":5123,
			"count":8304,
			"type":"SCALAR"
		},
		{
			"bufferView":96,
			"componentType":5126,
			"count":1392,
			"max":[
				49.76084518432617,
				1.6076306104660034,
				2.3350467681884766
			],
			"min":[
				49.22835922241211,
				1.1366963386535645,
				1.1112583875656128
			],
			"type":"VEC3"
		},
		{
			"bufferView":97,
			"componentType":5126,
			"count":1392,
			"type":"VEC3"
		},
		{
			"bufferView":98,
			"componentType":5126,
			"count":1392,
			"type":"VEC2"
		},
		{
			"bufferView":99,
			"componentType":5126,
			"count":1392,
			"type":"VEC2"
		},
		{
			"bufferView":100,
			"componentType":5126,
			"count":1392,
			"type":"VEC2"
		},
		{
			"bufferView":101,
			"componentType":5121,
			"count":1392,
			"normalized":true,
			"type":"VEC4"
		},
		{
			"bufferView":102,
			"componentType":5126,
			"count":1392,
			"type":"VEC3"
		},
		{
			"bufferView":103,
			"componentType":5126,
			"count":1025,
			"max":[
				47.41571807861328,
				1.2584583759307861,
				-3.072557210922241
			],
			"min":[
				46.025699615478516,
				-0.13155923783779144,
				-3.370762825012207
			],
			"type":"VEC3"
		},
		{
			"bufferView":104,
			"componentType":5126,
			"count":1025,
			"type":"VEC3"
		},
		{
			"bufferView":105,
			"componentType":5126,
			"count":1025,
			"type":"VEC2"
		},
		{
			"bufferView":106,
			"componentType":5126,
			"count":1025,
			"type":"VEC2"
		},
		{
			"bufferView":107,
			"componentType":5126,
			"count":1025,
			"type":"VEC2"
		},
		{
			"bufferView":108,
			"componentType":5121,
			"count":1025,
			"normalized":true,
			"type":"VEC4"
		},
		{
			"bufferView":109,
			"componentType":5126,
			"count":1025,
			"type":"VEC3"
		},
		{
			"bufferView":110,
			"componentType":5123,
			"count":3000,
			"type":"SCALAR"
		},
		{
			"bufferView":111,
			"componentType":5126,
			"count":7985,
			"max":[
				75.57634735107422,
				2.2575173377990723,
				0.20510797202587128
			],
			"min":[
				73.75607299804688,
				-0.1231563538312912,
				-1.9963841438293457
			],
			"type":"VEC3"
		},
		{
			"bufferView":112,
			"componentType":5126,
			"count":7985,
			"type":"VEC3"
		},
		{
			"bufferView":113,
			"componentType":5126,
			"count":7985,
			"type":"VEC2"
		},
		{
			"bufferView":114,
			"componentType":5126,
			"count":7985,
			"type":"VEC2"
		},
		{
			"bufferView":115,
			"componentType":5126,
			"count":7985,
			"type":"VEC2"
		},
		{
			"bufferView":116,
			"componentType":5121,
			"count":7985,
			"normalized":true,
			"type":"VEC4"
		},
		{
			"bufferView":117,
			"componentType":5126,
			"count":7985,
			"type":"VEC3"
		},
		{
			"bufferView":118,
			"componentType":5123,
			"count":33111,
			"type":"SCALAR"
		},
		{
			"bufferView":119,
			"componentType":5126,
			"count":7981,
			"max":[
				73.5778579711914,
				2.275404453277588,
				0.1934599131345749
			],
			"min":[
				71.75758361816406,
				-0.19763526320457458,
				-1.9155117273330688
			],
			"type":"VEC3"
		},
		{
			"bufferView":120,
			"componentType":5126,
			"count":7981,
			"type":"VEC3"
		},
		{
			"bufferView":121,
			"componentType":5126,
			"count":7981,
			"type":"VEC2"
		},
		{
			"bufferView":122,
			"componentType":5126,
			"count":7981,
			"type":"VEC2"
		},
		{
			"bufferView":123,
			"componentType":5126,
			"count":7981,
			"type":"VEC2"
		},
		{
			"bufferView":124,
			"componentType":5121,
			"count":7981,
			"normalized":true,
			"type":"VEC4"
		},
		{
			"bufferView":125,
			"componentType":5126,
			"count":7981,
			"type":"VEC3"
		},
		{
			"bufferView":126,
			"componentType":5123,
			"count":33111,
			"type":"SCALAR"
		},
		{
			"bufferView":127,
			"componentType":5126,
			"count":8680,
			"max":[
				79.84587097167969,
				1.5075407028198242,
				0.18080174922943115
			],
			"min":[
				78.02558898925781,
				-0.12607510387897491,
				-1.928169846534729
			],
			"type":"VEC3"
		},
		{
			"bufferView":128,
			"componentType":5126,
			"count":8680,
			"type":"VEC3"
		},
		{
			"bufferView":129,
			"componentType":5126,
			"count":8680,
			"type":"VEC2"
		},
		{
			"bufferView":130,
			"componentType":5126,
			"count":8680,
			"type":"VEC2"
		},
		{
			"bufferView":131,
			"componentType":5126,
			"count":8680,
			"type":"VEC2"
		},
		{
			"bufferView":132,
			"componentType":5121,
			"count":8680,
			"normalized":true,
			"type":"VEC4"
		},
		{
			"bufferView":133,
			"componentType":5126,
			"count":8680,
			"type":"VEC3"
		},
		{
			"bufferView":134,
			"componentType":5123,
			"count":36855,
			"type":"SCALAR"
		},
		{
			"bufferView":135,
			"componentType":5126,
			"count":3685,
			"max":[
				77.92003631591797,
				2.2094669342041016,
				-0.42593827843666077
			],
			"min":[
				76.09976196289062,
				-0.21330766379833221,
				-1.162069320678711
			],
			"type":"VEC3"
		},
		{
			"bufferView":136,
			"componentType":5126,
			"count":3685,
			"type":"VEC3"
		},
		{
			"bufferView":137,
			"componentType":5126,
			"count":3685,
			"type":"VEC2"
		},
		{
			"bufferView":138,
			"componentType":5126,
			"count":3685,
			"type":"VEC2"
		},
		{
			"bufferView":139,
			"componentType":5126,
			"count":3685,
			"type":"VEC2"
		},
		{
			"bufferView":140,
			"componentType":5121,
			"count":3685,
			"normalized":true,
			"type":"VEC4"
		},
		{
			"bufferView":141,
			"componentType":5126,
			"count":3685,
			"type":"VEC3"
		},
		{
			"bufferView":142,
			"componentType":5123,
			"count":9555,
			"type":"SCALAR"
		},
		{
			"bufferView":143,
			"componentType":5126,
			"count":3900,
			"max":[
				61.16902160644531,
				1.9058475494384766,
				-0.48605266213417053
			],
			"min":[
				59.3487434387207,
				0.1265634447336197,
				-1.2221838235855103
			],
			"type":"VEC3"
		},
		{
			"bufferView":144,
			"componentType":5126,
			"count":3900,
			"type":"VEC3"
		},
		{
			"bufferView":145,
			"componentType":5126,
			"count":3900,
			"type":"VEC2"
		},
		{
			"bufferView":146,
			"componentType":5126,
			"count":3900,
			"type":"VEC2"
		},
		{
			"bufferView":147,
			"componentType":5126,
			"count":3900,
			"type":"VEC2"
		},
		{
			"bufferView":148,
			"componentType":5121,
			"count":3900,
			"normalized":true,
			"type":"VEC4"
		},
		{
			"bufferView":149,
			"componentType":5126,
			"count":3900,
			"type":"VEC3"
		},
		{
			"bufferView":150,
			"componentType":5123,
			"count":10635,
			"type":"SCALAR"
		},
		{
			"bufferView":151,
			"componentType":5126,
			"count":3906,
			"max":[
				63.876075744628906,
				1.8521839380264282,
				-0.47656118869781494
			],
			"min":[
				62.05579376220703,
				0.07289962470531464,
				-1.2126922607421875
			],
			"type":"VEC3"
		},
		{
			"bufferView":152,
			"componentType":5126,
			"count":3906,
			"type":"VEC3"
		},
		{
			"bufferView":153,
			"componentType":5126,
			"count":3906,
			"type":"VEC2"
		},
		{
			"bufferView":154,
			"componentType":5126,
			"count":3906,
			"type":"VEC2"
		},
		{
			"bufferView":155,
			"componentType":5126,
			"count":3906,
			"type":"VEC2"
		},
		{
			"bufferView":156,
			"componentType":5121,
			"count":3906,
			"normalized":true,
			"type":"VEC4"
		},
		{
			"bufferView":157,
			"componentType":5126,
			"count":3906,
			"type":"VEC3"
		},
		{
			"bufferView":158,
			"componentType":5123,
			"count":10635,
			"type":"SCALAR"
		},
		{
			"bufferView":159,
			"componentType":5126,
			"count":10919,
			"max":[
				70.64641571044922,
				3.4785103797912598,
				-0.4593579173088074
			],
			"min":[
				66.94676208496094,
				0.059421051293611526,
				-1.384905457496643
			],
			"type":"VEC3"
		},
		{
			"bufferView":160,
			"componentType":5126,
			"count":10919,
			"type":"VEC3"
		},
		{
			"bufferView":161,
			"componentType":5126,
			"count":10919,
			"type":"VEC2"
		},
		{
			"bufferView":162,
			"componentType":5126,
			"count":10919,
			"type":"VEC2"
		},
		{
			"bufferView":163,
			"componentType":5126,
			"count":10919,
			"type":"VEC2"
		},
		{
			"bufferView":164,
			"componentType":5121,
			"count":10919,
			"normalized":true,
			"type":"VEC4"
		},
		{
			"bufferView":165,
			"componentType":5126,
			"count":10919,
			"type":"VEC3"
		},
		{
			"bufferView":166,
			"componentType":5123,
			"count":36804,
			"type":"SCALAR"
		},
		{
			"bufferView":167,
			"componentType":5126,
			"count":2716,
			"max":[
				65.55841827392578,
				2.436103343963623,
				0.087762251496315
			],
			"min":[
				64.65162658691406,
				0.2774467468261719,
				-0.8217196464538574
			],
			"type":"VEC3"
		},
		{
			"bufferView":168,
			"componentType":5126,
			"count":2716,
			"type":"VEC3"
		},
		{
			"bufferView":169,
			"componentType":5126,
			"count":2716,
			"type":"VEC2"
		},
		{
			"bufferView":170,
			"componentType":5126,
			"count":2716,
			"type":"VEC2"
		},
		{
			"bufferView":171,
			"componentType":5126,
			"count":2716,
			"type":"VEC2"
		},
		{
			"bufferView":172,
			"componentType":5121,
			"count":2716,
			"normalized":true,
			"type":"VEC4"
		},
		{
			"bufferView":173,
			"componentType":5126,
			"count":2716,
			"type":"VEC3"
		},
		{
			"bufferView":174,
			"componentType":5123,
			"count":4200,
			"type":"SCALAR"
		},
		{
			"bufferView":175,
			"componentType":5126,
			"count":4942,
			"max":[
				91.7222900390625,
				4.72154426574707,
				8.168807029724121
			],
			"min":[
				90.15665435791016,
				3.94893217086792,
				7.08394193649292
			],
			"type":"VEC3"
		},
		{
			"bufferView":176,
			"componentType":5126,
			"count":4942,
			"type":"VEC3"
		},
		{
			"bufferView":177,
			"componentType":5126,
			"count":4942,
			"type":"VEC2"
		},
		{
			"bufferView":178,
			"componentType":5126,
			"count":4942,
			"type":"VEC2"
		},
		{
			"bufferView":179,
			"componentType":5126,
			"count":4942,
			"type":"VEC2"
		},
		{
			"bufferView":180,
			"componentType":5121,
			"count":4942,
			"normalized":true,
			"type":"VEC4"
		},
		{
			"bufferView":181,
			"componentType":5126,
			"count":4942,
			"type":"VEC3"
		},
		{
			"bufferView":182,
			"componentType":5123,
			"count":22740,
			"type":"SCALAR"
		},
		{
			"bufferView":183,
			"componentType":5126,
			"count":3964,
			"max":[
				87.52642822265625,
				5.152307033538818,
				7.660637855529785
			],
			"min":[
				86.06803894042969,
				3.9393937587738037,
				6.519623279571533
			],
			"type":"VEC3"
		},
		{
			"bufferView":184,
			"componentType":5126,
			"count":3964,
			"type":"VEC3"
		},
		{
			"bufferView":185,
			"componentType":5126,
			"count":3964,
			"type":"VEC2"
		},
		{
			"bufferView":186,
			"componentType":5126,
			"count":3964,
			"type":"VEC2"
		},
		{
			"bufferView":187,
			"componentType":5126,
			"count":3964,
			"type":"VEC2"
		},
		{
			"bufferView":188,
			"componentType":5121,
			"count":3964,
			"normalized":true,
			"type":"VEC4"
		},
		{
			"bufferView":189,
			"componentType":5126,
			"count":3964,
			"type":"VEC3"
		},
		{
			"bufferView":190,
			"componentType":5123,
			"count":18732,
			"type":"SCALAR"
		},
		{
			"bufferView":191,
			"componentType":5126,
			"count":4328,
			"max":[
				89.71367645263672,
				5.903360366821289,
				8.055371284484863
			],
			"min":[
				88.09115600585938,
				4.15653657913208,
				6.587491512298584
			],
			"type":"VEC3"
		},
		{
			"bufferView":192,
			"componentType":5126,
			"count":4328,
			"type":"VEC3"
		},
		{
			"bufferView":193,
			"componentType":5126,
			"count":4328,
			"type":"VEC2"
		},
		{
			"bufferView":194,
			"componentType":5126,
			"count":4328,
			"type":"VEC2"
		},
		{
			"bufferView":195,
			"componentType":5126,
			"count":4328,
			"type":"VEC2"
		},
		{
			"bufferView":196,
			"componentType":5121,
			"count":4328,
			"normalized":true,
			"type":"VEC4"
		},
		{
			"bufferView":197,
			"componentType":5126,
			"count":4328,
			"type":"VEC3"
		},
		{
			"bufferView":198,
			"componentType":5123,
			"count":20934,
			"type":"SCALAR"
		}
	],
	"bufferViews":[
		{
			"buffer":0,
			"byteLength":33527328,
			"byteOffset":0,
			"target":34962
		},
		{
			"buffer":0,
			"byteLength":33527328,
			"byteOffset":33527328,
			"target":34962
		},
		{
			"buffer":0,
			"byteLength":22351552,
			"byteOffset":67054656,
			"target":34962
		},
		{
			"buffer":0,
			"byteLength":22351552,
			"byteOffset":89406208,
			"target":34962
		},
		{
			"buffer":0,
			"byteLength":22351552,
			"byteOffset":111757760,
			"target":34962
		},
		{
			"buffer":0,
			"byteLength":11175776,
			"byteOffset":134109312,
			"target":34962
		},
		{
			"buffer":0,
			"byteLength":33527328,
			"byteOffset":145285088,
			"target":34962
		},
		{
			"buffer":0,
			"byteLength":16399284,
			"byteOffset":178812416,
			"target":34963
		},
		{
			"buffer":0,
			"byteLength":23844,
			"byteOffset":195211700,
			"target":34962
		},
		{
			"buffer":0,
			"byteLength":23844,
			"byteOffset":195235544,
			"target":34962
		},
		{
			"buffer":0,
			"byteLength":15896,
			"byteOffset":195259388,
			"target":34962
		},
		{
			"buffer":0,
			"byteLength":15896,
			"byteOffset":195275284,
			"target":34962
		},
		{
			"buffer":0,
			"byteLength":15896,
			"byteOffset":195291180,
			"target":34962
		},
		{
			"buffer":0,
			"byteLength":7948,
			"byteOffset":195307076,
			"target":34962
		},
		{
			"buffer":0,
			"byteLength":23844,
			"byteOffset":195315024,
			"target":34962
		},
		{
			"buffer":0,
			"byteLength":18534,
			"byteOffset":195338868,
			"target":34963
		},
		{
			"buffer":0,
			"byteLength":41256,
			"byteOffset":195357404,
			"target":34962
		},
		{
			"buffer":0,
			"byteLength":41256,
			"byteOffset":195398660,
			"target":34962
		},
		{
			"buffer":0,
			"byteLength":27504,
			"byteOffset":195439916,
			"target":34962
		},
		{
			"buffer":0,
			"byteLength":27504,
			"byteOffset":195467420,
			"target":34962
		},
		{
			"buffer":0,
			"byteLength":27504,
			"byteOffset":195494924,
			"target":34962
		},
		{
			"buffer":0,
			"byteLength":13752,
			"byteOffset":195522428,
			"target":34962
		},
		{
			"buffer":0,
			"byteLength":41256,
			"byteOffset":195536180,
			"target":34962
		},
		{
			"buffer":0,
			"byteLength":26220,
			"byteOffset":195577436,
			"target":34963
		},
		{
			"buffer":0,
			"byteLength":25572,
			"byteOffset":195603656,
			"target":34962
		},
		{
			"buffer":0,
			"byteLength":25572,
			"byteOffset":195629228,
			"target":34962
		},
		{
			"buffer":0,
			"byteLength":17048,
			"byteOffset":195654800,
			"target":34962
		},
		{
			"buffer":0,
			"byteLength":17048,
			"byteOffset":195671848,
			"target":34962
		},
		{
			"buffer":0,
			"byteLength":17048,
			"byteOffset":195688896,
			"target":34962
		},
		{
			"buffer":0,
			"byteLength":8524,
			"byteOffset":195705944,
			"target":34962
		},
		{
			"buffer":0,
			"byteLength":25572,
			"byteOffset":195714468,
			"target":34962
		},
		{
			"buffer":0,
			"byteLength":19632,
			"byteOffset":195740040,
			"target":34963
		},
		{
			"buffer":0,
			"byteLength":136236,
			"byteOffset":195759672,
			"target":34962
		},
		{
			"buffer":0,
			"byteLength":136236,
			"byteOffset":195895908,
			"target":34962
		},
		{
			"buffer":0,
			"byteLength":90824,
			"byteOffset":196032144,
			"target":34962
		},
		{
			"buffer":0,
			"byteLength":90824,
			"byteOffset":196122968,
			"target":34962
		},
		{
			"buffer":0,
			"byteLength":90824,
			"byteOffset":196213792,
			"target":34962
		},
		{
			"buffer":0,
			"byteLength":45412,
			"byteOffset":196304616,
			"target":34962
		},
		{
			"buffer":0,
			"byteLength":136236,
			"byteOffset":196350028,
			"target":34962
		},
		{
			"buffer":0,
			"byteLength":33870,
			"byteOffset":196486264,
			"target":34963
		},
		{
			"buffer":0,
			"byteLength":143196,
			"byteOffset":196520136,
			"target":34962
		},
		{
			"buffer":0,
			"byteLength":143196,
			"byteOffset":196663332,
			"target":34962
		},
		{
			"buffer":0,
			"byteLength":95464,
			"byteOffset":196806528,
			"target":34962
		},
		{
			"buffer":0,
			"byteLength":95464,
			"byteOffset":196901992,
			"target":34962
		},
		{
			"buffer":0,
			"byteLength":95464,
			"byteOffset":196997456,
			"target":34962
		},
		{
			"buffer":0,
			"byteLength":47732,
			"byteOffset":197092920,
			"target":34962
		},
		{
			"buffer":0,
			"byteLength":143196,
			"byteOffset":197140652,
			"target":34962
		},
		{
			"buffer":0,
			"byteLength":98322,
			"byteOffset":197283848,
			"target":34963
		},
		{
			"buffer":0,
			"byteLength":173364,
			"byteOffset":197382172,
			"target":34962
		},
		{
			"buffer":0,
			"byteLength":173364,
			"byteOffset":197555536,
			"target":34962
		},
		{
			"buffer":0,
			"byteLength":115576,
			"byteOffset":197728900,
			"target":34962
		},
		{
			"buffer":0,
			"byteLength":115576,
			"byteOffset":197844476,
			"target":34962
		},
		{
			"buffer":0,
			"byteLength":115576,
			"byteOffset":197960052,
			"target":34962
		},
		{
			"buffer":0,
			"byteLength":57788,
			"byteOffset":198075628,
			"target":34962
		},
		{
			"buffer":0,
			"byteLength":173364,
			"byteOffset":198133416,
			"target":34962
		},
		{
			"buffer":0,
			"byteLength":62130,
			"byteOffset":198306780,
			"target":34963
		},
		{
			"buffer":0,
			"byteLength":275796,
			"byteOffset":198368912,
			"target":34962
		},
		{
			"buffer":0,
			"byteLength":275796,
			"byteOffset":198644708,
			"target":34962
		},
		{
			"buffer":0,
			"byteLength":183864,
			"byteOffset":198920504,
			"target":34962
		},
		{
			"buffer":0,
			"byteLength":183864,
			"byteOffset":199104368,
			"target":34962
		},
		{
			"buffer":0,
			"byteLength":183864,
			"byteOffset":199288232,
			"target":34962
		},
		{
			"buffer":0,
			"byteLength":91932,
			"byteOffset":199472096,
			"target":34962
		},
		{
			"buffer":0,
			"byteLength":275796,
			"byteOffset":199564028,
			"target":34962
		},
		{
			"buffer":0,
			"byteLength":80244,
			"byteOffset":199839824,
			"target":34963
		},
		{
			"buffer":0,
			"byteLength":19284,
			"byteOffset":199920068,
			"target":34962
		},
		{
			"buffer":0,
			"byteLength":19284,
			"byteOffset":199939352,
			"target":34962
		},
		{
			"buffer":0,
			"byteLength":12856,
			"byteOffset":199958636,
			"target":34962
		},
		{
			"buffer":0,
			"byteLength":12856,
			"byteOffset":199971492,
			"target":34962
		},
		{
			"buffer":0,
			"byteLength":12856,
			"byteOffset":199984348,
			"target":34962
		},
		{
			"buffer":0,
			"byteLength":6428,
			"byteOffset":199997204,
			"target":34962
		},
		{
			"buffer":0,
			"byteLength":19284,
			"byteOffset":200003632,
			"target":34962
		},
		{
			"buffer":0,
			"byteLength":16872,
			"byteOffset":200022916,
			"target":34963
		},
		{
			"buffer":0,
			"byteLength":16704,
			"byteOffset":200039788,
			"target":34962
		},
		{
			"buffer":0,
			"byteLength":16704,
			"byteOffset":200056492,
			"target":34962
		},
		{
			"buffer":0,
			"byteLength":11136,
			"byteOffset":200073196,
			"target":34962
		},
		{
			"buffer":0,
			"byteLength":11136,
			"byteOffset":200084332,
			"target":34962
		},
		{
			"buffer":0,
			"byteLength":11136,
			"byteOffset":200095468,
			"target":34962
		},
		{
			"buffer":0,
			"byteLength":5568,
			"byteOffset":200106604,
			"target":34962
		},
		{
			"buffer":0,
			"byteLength":16704,
			"byteOffset":200112172,
			"target":34962
		},
		{
			"buffer":0,
			"byteLength":14796,
			"byteOffset":200128876,
			"target":34963
		},
		{
			"buffer":0,
			"byteLength":19740,
			"byteOffset":200143672,
			"target":34962
		},
		{
			"buffer":0,
			"byteLength":19740,
			"byteOffset":200163412,
			"target":34962
		},
		{
			"buffer":0,
			"byteLength":13160,
			"byteOffset":200183152,
			"target":34962
		},
		{
			"buffer":0,
			"byteLength":13160,
			"byteOffset":200196312,
			"target":34962
		},
		{
			"buffer":0,
			"byteLength":13160,
			"byteOffset":200209472,
			"target":34962
		},
		{
			"buffer":0,
			"byteLength":6580,
			"byteOffset":200222632,
			"target":34962
		},
		{
			"buffer":0,
			"byteLength":19740,
			"byteOffset":200229212,
			"target":34962
		},
		{
			"buffer":0,
			"byteLength":17688,
			"byteOffset":200248952,
			"target":34963
		},
		{
			"buffer":0,
			"byteLength":18744,
			"byteOffset":200266640,
			"target":34962
		},
		{
			"buffer":0,
			"byteLength":18744,
			"byteOffset":200285384,
			"target":34962
		},
		{
			"buffer":0,
			"byteLength":12496,
			"byteOffset":200304128,
			"target":34962
		},
		{
			"buffer":0,
			"byteLength":12496,
			"byteOffset":200316624,
			"target":34962
		},
		{
			"buffer":0,
			"byteLength":12496,
			"byteOffset":200329120,
			"target":34962
		},
		{
			"buffer":0,
			"byteLength":6248,
			"byteOffset":200341616,
			"target":34962
		},
		{
			"buffer":0,
			"byteLength":18744,
			"byteOffset":200347864,
			"target":34962
		},
		{
			"buffer":0,
			"byteLength":16608,
			"byteOffset":200366608,
			"target":34963
		},
		{
			"buffer":0,
			"byteLength":16704,
			"byteOffset":200383216,
			"target":34962
		},
		{
			"buffer":0,
			"byteLength":16704,
			"byteOffset":200399920,
			"target":34962
		},
		{
			"buffer":0,
			"byteLength":11136,
			"byteOffset":200416624,
			"target":34962
		},
		{
			"buffer":0,
			"byteLength":11136,
			"byteOffset":200427760,
			"target":34962
		},
		{
			"buffer":0,
			"byteLength":11136,
			"byteOffset":200438896,
			"target":34962
		},
		{
			"buffer":0,
			"byteLength":5568,
			"byteOffset":200450032,
			"target":34962
		},
		{
			"buffer":0,
			"byteLength":16704,
			"byteOffset":200455600,
			"target":34962
		},
		{
			"buffer":0,
			"byteLength":12300,
			"byteOffset":200472304,
			"target":34962
		},
		{
			"buffer":0,
			"byteLength":12300,
			"byteOffset":200484604,
			"target":34962
		},
		{
			"buffer":0,
			"byteLength":8200,
			"byteOffset":200496904,
			"target":34962
		},
		{
			"buffer":0,
			"byteLength":8200,
			"byteOffset":200505104,
			"target":34962
		},
		{
			"buffer":0,
			"byteLength":8200,
			"byteOffset":200513304,
			"target":34962
		},
		{
			"buffer":0,
			"byteLength":4100,
			"byteOffset":200521504,
			"target":34962
		},
		{
			"buffer":0,
			"byteLength":12300,
			"byteOffset":200525604,
			"target":34962
		},
		{
			"buffer":0,
			"byteLength":6000,
			"byteOffset":200537904,
			"target":34963
		},
		{
			"buffer":0,
			"byteLength":95820,
			"byteOffset":200543904,
			"target":34962
		},
		{
			"buffer":0,
			"byteLength":95820,
			"byteOffset":200639724,
			"target":34962
		},
		{
			"buffer":0,
			"byteLength":63880,
			"byteOffset":200735544,
			"target":34962
		},
		{
			"buffer":0,
			"byteLength":63880,
			"byteOffset":200799424,
			"target":34962
		},
		{
			"buffer":0,
			"byteLength":63880,
			"byteOffset":200863304,
			"target":34962
		},
		{
			"buffer":0,
			"byteLength":31940,
			"byteOffset":200927184,
			"target":34962
		},
		{
			"buffer":0,
			"byteLength":95820,
			"byteOffset":200959124,
			"target":34962
		},
		{
			"buffer":0,
			"byteLength":66222,
			"byteOffset":201054944,
			"target":34963
		},
		{
			"buffer":0,
			"byteLength":95772,
			"byteOffset":201121168,
			"target":34962
		},
		{
			"buffer":0,
			"byteLength":95772,
			"byteOffset":201216940,
			"target":34962
		},
		{
			"buffer":0,
			"byteLength":63848,
			"byteOffset":201312712,
			"target":34962
		},
		{
			"buffer":0,
			"byteLength":63848,
			"byteOffset":201376560,
			"target":34962
		},
		{
			"buffer":0,
			"byteLength":63848,
			"byteOffset":201440408,
			"target":34962
		},
		{
			"buffer":0,
			"byteLength":31924,
			"byteOffset":201504256,
			"target":34962
		},
		{
			"buffer":0,
			"byteLength":95772,
			"byteOffset":201536180,
			"target":34962
		},
		{
			"buffer":0,
			"byteLength":66222,
			"byteOffset":201631952,
			"target":34963
		},
		{
			"buffer":0,
			"byteLength":104160,
			"byteOffset":201698176,
			"target":34962
		},
		{
			"buffer":0,
			"byteLength":104160,
			"byteOffset":201802336,
			"target":34962
		},
		{
			"buffer":0,
			"byteLength":69440,
			"byteOffset":201906496,
			"target":34962
		},
		{
			"buffer":0,
			"byteLength":69440,
			"byteOffset":201975936,
			"target":34962
		},
		{
			"buffer":0,
			"byteLength":69440,
			"byteOffset":202045376,
			"target":34962
		},
		{
			"buffer":0,
			"byteLength":34720,
			"byteOffset":202114816,
			"target":34962
		},
		{
			"buffer":0,
			"byteLength":104160,
			"byteOffset":202149536,
			"target":34962
		},
		{
			"buffer":0,
			"byteLength":73710,
			"byteOffset":202253696,
			"target":34963
		},
		{
			"buffer":0,
			"byteLength":44220,
			"byteOffset":202327408,
			"target":34962
		},
		{
			"buffer":0,
			"byteLength":44220,
			"byteOffset":202371628,
			"target":34962
		},
		{
			"buffer":0,
			"byteLength":29480,
			"byteOffset":202415848,
			"target":34962
		},
		{
			"buffer":0,
			"byteLength":29480,
			"byteOffset":202445328,
			"target":34962
		},
		{
			"buffer":0,
			"byteLength":29480,
			"byteOffset":202474808,
			"target":34962
		},
		{
			"buffer":0,
			"byteLength":14740,
			"byteOffset":202504288,
			"target":34962
		},
		{
			"buffer":0,
			"byteLength":44220,
			"byteOffset":202519028,
			"target":34962
		},
		{
			"buffer":0,
			"byteLength":19110,
			"byteOffset":202563248,
			"target":34963
		},
		{
			"buffer":0,
			"byteLength":46800,
			"byteOffset":202582360,
			"target":34962
		},
		{
			"buffer":0,
			"byteLength":46800,
			"byteOffset":202629160,
			"target":34962
		},
		{
			"buffer":0,
			"byteLength":31200,
			"byteOffset":202675960,
			"target":34962
		},
		{
			"buffer":0,
			"byteLength":31200,
			"byteOffset":202707160,
			"target":34962
		},
		{
			"buffer":0,
			"byteLength":31200,
			"byteOffset":202738360,
			"target":34962
		},
		{
			"buffer":0,
			"byteLength":15600,
			"byteOffset":202769560,
			"target":34962
		},
		{
			"buffer":0,
			"byteLength":46800,
			"byteOffset":202785160,
			"target":34962
		},
		{
			"buffer":0,
			"byteLength":21270,
			"byteOffset":202831960,
			"target":34963
		},
		{
			"buffer":0,
			"byteLength":46872,
			"byteOffset":202853232,
			"target":34962
		},
		{
			"buffer":0,
			"byteLength":46872,
			"byteOffset":202900104,
			"target":34962
		},
		{
			"buffer":0,
			"byteLength":31248,
			"byteOffset":202946976,
			"target":34962
		},
		{
			"buffer":0,
			"byteLength":31248,
			"byteOffset":202978224,
			"target":34962
		},
		{
			"buffer":0,
			"byteLength":31248,
			"byteOffset":203009472,
			"target":34962
		},
		{
			"buffer":0,
			"byteLength":15624,
			"byteOffset":203040720,
			"target":34962
		},
		{
			"buffer":0,
			"byteLength":46872,
			"byteOffset":203056344,
			"target":34962
		},
		{
			"buffer":0,
			"byteLength":21270,
			"byteOffset":203103216,
			"target":34963
		},
		{
			"buffer":0,
			"byteLength":131028,
			"byteOffset":203124488,
			"target":34962
		},
		{
			"buffer":0,
			"byteLength":131028,
			"byteOffset":203255516,
			"target":34962
		},
		{
			"buffer":0,
			"byteLength":87352,
			"byteOffset":203386544,
			"target":34962
		},
		{
			"buffer":0,
			"byteLength":87352,
			"byteOffset":203473896,
			"target":34962
		},
		{
			"buffer":0,
			"byteLength":87352,
			"byteOffset":203561248,
			"target":34962
		},
		{
			"buffer":0,
			"byteLength":43676,
			"byteOffset":203648600,
			"target":34962
		},
		{
			"buffer":0,
			"byteLength":131028,
			"byteOffset":203692276,
			"target":34962
		},
		{
			"buffer":0,
			"byteLength":73608,
			"byteOffset":203823304,
			"target":34963
		},
		{
			"buffer":0,
			"byteLength":32592,
			"byteOffset":203896912,
			"target":34962
		},
		{
			"buffer":0,
			"byteLength":32592,
			"byteOffset":203929504,
			"target":34962
		},
		{
			"buffer":0,
			"byteLength":21728,
			"byteOffset":203962096,
			"target":34962
		},
		{
			"buffer":0,
			"byteLength":21728,
			"byteOffset":203983824,
			"target":34962
		},
		{
			"buffer":0,
			"byteLength":21728,
			"byteOffset":204005552,
			"target":34962
		},
		{
			"buffer":0,
			"byteLength":10864,
			"byteOffset":204027280,
			"target":34962
		},
		{
			"buffer":0,
			"byteLength":32592,
			"byteOffset":204038144,
			"target":34962
		},
		{
			"buffer":0,
			"byteLength":8400,
			"byteOffset":204070736,
			"target":34963
		},
		{
			"buffer":0,
			"byteLength":59304,
			"byteOffset":204079136,
			"target":34962
		},
		{
			"buffer":0,
			"byteLength":59304,
			"byteOffset":204138440,
			"target":34962
		},
		{
			"buffer":0,
			"byteLength":39536,
			"byteOffset":204197744,
			"target":34962
		},
		{
			"buffer":0,
			"byteLength":39536,
			"byteOffset":204237280,
			"target":34962
		},
		{
			"buffer":0,
			"byteLength":39536,
			"byteOffset":204276816,
			"target":34962
		},
		{
			"buffer":0,
			"byteLength":19768,
			"byteOffset":204316352,
			"target":34962
		},
		{
			"buffer":0,
			"byteLength":59304,
			"byteOffset":204336120,
			"target":34962
		},
		{
			"buffer":0,
			"byteLength":45480,
			"byteOffset":204395424,
			"target":34963
		},
		{
			"buffer":0,
			"byteLength":47568,
			"byteOffset":204440904,
			"target":34962
		},
		{
			"buffer":0,
			"byteLength":47568,
			"byteOffset":204488472,
			"target":34962
		},
		{
			"buffer":0,
			"byteLength":31712,
			"byteOffset":204536040,
			"target":34962
		},
		{
			"buffer":0,
			"byteLength":31712,
			"byteOffset":204567752,
			"target":34962
		},
		{
			"buffer":0,
			"byteLength":31712,
			"byteOffset":204599464,
			"target":34962
		},
		{
			"buffer":0,
			"byteLength":15856,
			"byteOffset":204631176,
			"target":34962
		},
		{
			"buffer":0,
			"byteLength":47568,
			"byteOffset":204647032,
			"target":34962
		},
		{
			"buffer":0,
			"byteLength":37464,
			"byteOffset":204694600,
			"target":34963
		},
		{
			"buffer":0,
			"byteLength":51936,
			"byteOffset":204732064,
			"target":34962
		},
		{
			"buffer":0,
			"byteLength":51936,
			"byteOffset":204784000,
			"target":34962
		},
		{
			"buffer":0,
			"byteLength":34624,
			"byteOffset":204835936,
			"target":34962
		},
		{
			"buffer":0,
			"byteLength":34624,
			"byteOffset":204870560,
			"target":34962
		},
		{
			"buffer":0,
			"byteLength":34624,
			"byteOffset":204905184,
			"target":34962
		},
		{
			"buffer":0,
			"byteLength":17312,
			"byteOffset":204939808,
			"target":34962
		},
		{
			"buffer":0,
			"byteLength":51936,
			"byteOffset":204957120,
			"target":34962
		},
		{
			"buffer":0,
			"byteLength":41868,
			"byteOffset":205009056,
			"target":34963
		}
	],
	"samplers":[
		{
			"magFilter":9729,
			"minFilter":9987
		}
	],
	"buffers":[
		{
			"byteLength":205050924,
			"uri":"all%20assets.bin"
		}
	]
}
