{
	"asset":{
		"generator":"Khronos glTF Blender I/O v4.2.69",
		"version":"2.0"
	},
	"scene":0,
	"scenes":[
		{
			"name":"Scene",
			"nodes":[
				0
			]
		}
	],
	"nodes":[
		{
			"mesh":0,
			"name":"Bull pose-low.002",
			"rotation":[
				0.7071068286895752,
				0,
				0,
				0.7071068286895752
			],
			"translation":[
				34.18142318725586,
				-3.2574548721313477,
				-65.61625671386719
			]
		}
	],
	"meshes":[
		{
			"name":"Bull pose-low.004",
			"primitives":[
				{
					"attributes":{
						"POSITION":0,
						"NORMAL":1,
						"TEXCOORD_0":2
					},
					"indices":3
				}
			]
		}
	],
	"accessors":[
		{
			"bufferView":0,
			"componentType":5126,
			"count":10603,
			"max":[
				12.297240257263184,
				12.33779239654541,
				5.217633247375488
			],
			"min":[
				-11.549002647399902,
				-11.461395263671875,
				-13.968358993530273
			],
			"type":"VEC3"
		},
		{
			"bufferView":1,
			"componentType":5126,
			"count":10603,
			"type":"VEC3"
		},
		{
			"bufferView":2,
			"componentType":5126,
			"count":10603,
			"type":"VEC2"
		},
		{
			"bufferView":3,
			"componentType":5123,
			"count":16473,
			"type":"SCALAR"
		}
	],
	"bufferViews":[
		{
			"buffer":0,
			"byteLength":127236,
			"byteOffset":0,
			"target":34962
		},
		{
			"buffer":0,
			"byteLength":127236,
			"byteOffset":127236,
			"target":34962
		},
		{
			"buffer":0,
			"byteLength":84824,
			"byteOffset":254472,
			"target":34962
		},
		{
			"buffer":0,
			"byteLength":32946,
			"byteOffset":339296,
			"target":34963
		}
	],
	"buffers":[
		{
			"byteLength":372244,
			"uri":"Bull%20statue.bin"
		}
	]
}
