{
	"asset":{
		"generator":"Khronos glTF Blender I/O v4.2.69",
		"version":"2.0"
	},
	"extensionsUsed":[
		"KHR_materials_specular"
	],
	"scene":0,
	"scenes":[
		{
			"name":"Scene",
			"nodes":[
				0,
				1,
				2,
				3,
				4,
				5,
				6,
				7,
				8,
				9,
				10,
				11,
				12,
				13,
				14,
				15,
				16,
				17,
				18,
				19,
				20,
				21,
				22,
				23,
				24,
				25,
				26,
				27,
				28,
				29,
				30,
				31,
				32,
				33,
				34,
				35,
				36,
				37,
				38,
				39,
				40,
				41,
				42,
				43,
				44,
				45,
				46,
				47,
				48,
				49
			]
		}
	],
	"nodes":[
		{
			"mesh":0,
			"name":"BO_47"
		},
		{
			"mesh":1,
			"name":"BO_6"
		},
		{
			"mesh":2,
			"name":"BO_7"
		},
		{
			"mesh":3,
			"name":"BO_10"
		},
		{
			"mesh":4,
			"name":"BO_11"
		},
		{
			"mesh":5,
			"name":"BO_12"
		},
		{
			"mesh":6,
			"name":"BO_13"
		},
		{
			"mesh":7,
			"name":"BO_16"
		},
		{
			"mesh":8,
			"name":"BO_15"
		},
		{
			"mesh":9,
			"name":"BO_14"
		},
		{
			"mesh":10,
			"name":"BO_17"
		},
		{
			"mesh":11,
			"name":"BO_46"
		},
		{
			"mesh":12,
			"name":"BO_44"
		},
		{
			"mesh":13,
			"name":"BO_43"
		},
		{
			"mesh":14,
			"name":"BO_41"
		},
		{
			"mesh":15,
			"name":"BO_42"
		},
		{
			"mesh":16,
			"name":"BO_45"
		},
		{
			"mesh":17,
			"name":"BO_35"
		},
		{
			"mesh":18,
			"name":"BO_27"
		},
		{
			"mesh":19,
			"name":"BO_23"
		},
		{
			"mesh":20,
			"name":"BO_24"
		},
		{
			"mesh":21,
			"name":"BO_29"
		},
		{
			"mesh":22,
			"name":"BO_25"
		},
		{
			"mesh":23,
			"name":"BO_26"
		},
		{
			"mesh":24,
			"name":"BO_34"
		},
		{
			"mesh":25,
			"name":"BO_32"
		},
		{
			"mesh":26,
			"name":"BO_31"
		},
		{
			"mesh":27,
			"name":"BO_33"
		},
		{
			"mesh":28,
			"name":"BO_9"
		},
		{
			"mesh":29,
			"name":"BO_1"
		},
		{
			"mesh":30,
			"name":"BO_5"
		},
		{
			"mesh":31,
			"name":"BO_4"
		},
		{
			"mesh":32,
			"name":"BO_3"
		},
		{
			"mesh":33,
			"name":"BO_2"
		},
		{
			"mesh":34,
			"name":"BO_8"
		},
		{
			"mesh":35,
			"name":"BO_28"
		},
		{
			"mesh":36,
			"name":"BO_30"
		},
		{
			"mesh":37,
			"name":"BO_48"
		},
		{
			"mesh":38,
			"name":"BO_49"
		},
		{
			"mesh":39,
			"name":"BO_18"
		},
		{
			"mesh":40,
			"name":"BO_19"
		},
		{
			"mesh":41,
			"name":"BO_22"
		},
		{
			"mesh":42,
			"name":"BO_21"
		},
		{
			"mesh":43,
			"name":"BO_20"
		},
		{
			"mesh":44,
			"name":"BO_36"
		},
		{
			"mesh":45,
			"name":"BO_37"
		},
		{
			"mesh":46,
			"name":"BO_38"
		},
		{
			"mesh":47,
			"name":"BO_39"
		},
		{
			"mesh":48,
			"name":"BO_40"
		},
		{
			"mesh":49,
			"name":"Cube"
		}
	],
	"materials":[
		{
			"doubleSided":true,
			"extensions":{
				"KHR_materials_specular":{
					"specularColorFactor":[
						2.0,
						2.0,
						2.0
					]
				}
			},
			"name":"Material.002",
			"pbrMetallicRoughness":{
				"metallicFactor":0,
				"roughnessFactor":0.5527864098548889
			}
		}
	],
	"meshes":[
		{
			"name":"Mesh",
			"primitives":[
				{
					"attributes":{
						"POSITION":0,
						"NORMAL":1,
						"TEXCOORD_0":2,
						"TEXCOORD_1":3
					},
					"indices":4,
					"material":0
				}
			]
		},
		{
			"name":"Mesh.001",
			"primitives":[
				{
					"attributes":{
						"POSITION":5,
						"NORMAL":6,
						"TEXCOORD_0":7,
						"TEXCOORD_1":8
					},
					"indices":9,
					"material":0
				}
			]
		},
		{
			"name":"Mesh.002",
			"primitives":[
				{
					"attributes":{
						"POSITION":10,
						"NORMAL":11,
						"TEXCOORD_0":12,
						"TEXCOORD_1":13
					},
					"indices":4,
					"material":0
				}
			]
		},
		{
			"name":"Mesh.003",
			"primitives":[
				{
					"attributes":{
						"POSITION":14,
						"NORMAL":15,
						"TEXCOORD_0":16,
						"TEXCOORD_1":17
					},
					"indices":9,
					"material":0
				}
			]
		},
		{
			"name":"Mesh.004",
			"primitives":[
				{
					"attributes":{
						"POSITION":18,
						"NORMAL":19,
						"TEXCOORD_0":20,
						"TEXCOORD_1":21
					},
					"indices":22,
					"material":0
				}
			]
		},
		{
			"name":"Mesh.005",
			"primitives":[
				{
					"attributes":{
						"POSITION":23,
						"NORMAL":24,
						"TEXCOORD_0":25,
						"TEXCOORD_1":26
					},
					"indices":9,
					"material":0
				}
			]
		},
		{
			"name":"Mesh.006",
			"primitives":[
				{
					"attributes":{
						"POSITION":27,
						"NORMAL":28,
						"TEXCOORD_0":29,
						"TEXCOORD_1":30
					},
					"indices":9,
					"material":0
				}
			]
		},
		{
			"name":"Mesh.007",
			"primitives":[
				{
					"attributes":{
						"POSITION":31,
						"NORMAL":32,
						"TEXCOORD_0":33,
						"TEXCOORD_1":34
					},
					"indices":4,
					"material":0
				}
			]
		},
		{
			"name":"Mesh.008",
			"primitives":[
				{
					"attributes":{
						"POSITION":35,
						"NORMAL":36,
						"TEXCOORD_0":37,
						"TEXCOORD_1":38
					},
					"indices":9,
					"material":0
				}
			]
		},
		{
			"name":"Mesh.009",
			"primitives":[
				{
					"attributes":{
						"POSITION":39,
						"NORMAL":40,
						"TEXCOORD_0":41,
						"TEXCOORD_1":42
					},
					"indices":43,
					"material":0
				}
			]
		},
		{
			"name":"Mesh.010",
			"primitives":[
				{
					"attributes":{
						"POSITION":44,
						"NORMAL":45,
						"TEXCOORD_0":46,
						"TEXCOORD_1":47
					},
					"indices":9,
					"material":0
				}
			]
		},
		{
			"name":"Mesh.011",
			"primitives":[
				{
					"attributes":{
						"POSITION":48,
						"NORMAL":49,
						"TEXCOORD_0":50,
						"TEXCOORD_1":51
					},
					"indices":52,
					"material":0
				}
			]
		},
		{
			"name":"Mesh.012",
			"primitives":[
				{
					"attributes":{
						"POSITION":53,
						"NORMAL":54,
						"TEXCOORD_0":55,
						"TEXCOORD_1":56
					},
					"indices":57,
					"material":0
				}
			]
		},
		{
			"name":"Mesh.013",
			"primitives":[
				{
					"attributes":{
						"POSITION":58,
						"NORMAL":59,
						"TEXCOORD_0":60,
						"TEXCOORD_1":61
					},
					"indices":9,
					"material":0
				}
			]
		},
		{
			"name":"Mesh.014",
			"primitives":[
				{
					"attributes":{
						"POSITION":62,
						"NORMAL":63,
						"TEXCOORD_0":64,
						"TEXCOORD_1":65
					},
					"indices":9,
					"material":0
				}
			]
		},
		{
			"name":"Mesh.015",
			"primitives":[
				{
					"attributes":{
						"POSITION":66,
						"NORMAL":67,
						"TEXCOORD_0":68,
						"TEXCOORD_1":69
					},
					"indices":4,
					"material":0
				}
			]
		},
		{
			"name":"Mesh.016",
			"primitives":[
				{
					"attributes":{
						"POSITION":70,
						"NORMAL":71,
						"TEXCOORD_0":72,
						"TEXCOORD_1":73
					},
					"indices":74,
					"material":0
				}
			]
		},
		{
			"name":"Mesh.017",
			"primitives":[
				{
					"attributes":{
						"POSITION":75,
						"NORMAL":76,
						"TEXCOORD_0":77,
						"TEXCOORD_1":78
					},
					"indices":9,
					"material":0
				}
			]
		},
		{
			"name":"Mesh.018",
			"primitives":[
				{
					"attributes":{
						"POSITION":79,
						"NORMAL":80,
						"TEXCOORD_0":81,
						"TEXCOORD_1":82
					},
					"indices":9,
					"material":0
				}
			]
		},
		{
			"name":"Mesh.019",
			"primitives":[
				{
					"attributes":{
						"POSITION":83,
						"NORMAL":84,
						"TEXCOORD_0":85,
						"TEXCOORD_1":86
					},
					"indices":9,
					"material":0
				}
			]
		},
		{
			"name":"Mesh.020",
			"primitives":[
				{
					"attributes":{
						"POSITION":87,
						"NORMAL":88,
						"TEXCOORD_0":89,
						"TEXCOORD_1":90
					},
					"indices":9,
					"material":0
				}
			]
		},
		{
			"name":"Mesh.021",
			"primitives":[
				{
					"attributes":{
						"POSITION":91,
						"NORMAL":92,
						"TEXCOORD_0":93,
						"TEXCOORD_1":94
					},
					"indices":9,
					"material":0
				}
			]
		},
		{
			"name":"Mesh.022",
			"primitives":[
				{
					"attributes":{
						"POSITION":95,
						"NORMAL":96,
						"TEXCOORD_0":97,
						"TEXCOORD_1":98
					},
					"indices":9,
					"material":0
				}
			]
		},
		{
			"name":"Mesh.023",
			"primitives":[
				{
					"attributes":{
						"POSITION":99,
						"NORMAL":100,
						"TEXCOORD_0":101,
						"TEXCOORD_1":102
					},
					"indices":9,
					"material":0
				}
			]
		},
		{
			"name":"Mesh.024",
			"primitives":[
				{
					"attributes":{
						"POSITION":103,
						"NORMAL":104,
						"TEXCOORD_0":105,
						"TEXCOORD_1":106
					},
					"indices":9,
					"material":0
				}
			]
		},
		{
			"name":"Mesh.025",
			"primitives":[
				{
					"attributes":{
						"POSITION":107,
						"NORMAL":108,
						"TEXCOORD_0":109,
						"TEXCOORD_1":110
					},
					"indices":9,
					"material":0
				}
			]
		},
		{
			"name":"Mesh.026",
			"primitives":[
				{
					"attributes":{
						"POSITION":111,
						"NORMAL":112,
						"TEXCOORD_0":113,
						"TEXCOORD_1":114
					},
					"indices":9,
					"material":0
				}
			]
		},
		{
			"name":"Mesh.027",
			"primitives":[
				{
					"attributes":{
						"POSITION":115,
						"NORMAL":116,
						"TEXCOORD_0":117,
						"TEXCOORD_1":118
					},
					"indices":119,
					"material":0
				}
			]
		},
		{
			"name":"Mesh.028",
			"primitives":[
				{
					"attributes":{
						"POSITION":120,
						"NORMAL":121,
						"TEXCOORD_0":122,
						"TEXCOORD_1":123
					},
					"indices":9,
					"material":0
				}
			]
		},
		{
			"name":"Mesh.029",
			"primitives":[
				{
					"attributes":{
						"POSITION":124,
						"NORMAL":125,
						"TEXCOORD_0":126,
						"TEXCOORD_1":127
					},
					"indices":128,
					"material":0
				}
			]
		},
		{
			"name":"Mesh.030",
			"primitives":[
				{
					"attributes":{
						"POSITION":129,
						"NORMAL":130,
						"TEXCOORD_0":131,
						"TEXCOORD_1":132
					},
					"indices":133,
					"material":0
				}
			]
		},
		{
			"name":"Mesh.031",
			"primitives":[
				{
					"attributes":{
						"POSITION":134,
						"NORMAL":135,
						"TEXCOORD_0":136,
						"TEXCOORD_1":137
					},
					"indices":138,
					"material":0
				}
			]
		},
		{
			"name":"Mesh.032",
			"primitives":[
				{
					"attributes":{
						"POSITION":139,
						"NORMAL":140,
						"TEXCOORD_0":141,
						"TEXCOORD_1":142
					},
					"indices":143,
					"material":0
				}
			]
		},
		{
			"name":"Mesh.033",
			"primitives":[
				{
					"attributes":{
						"POSITION":144,
						"NORMAL":145,
						"TEXCOORD_0":146,
						"TEXCOORD_1":147
					},
					"indices":9,
					"material":0
				}
			]
		},
		{
			"name":"Mesh.034",
			"primitives":[
				{
					"attributes":{
						"POSITION":148,
						"NORMAL":149,
						"TEXCOORD_0":150,
						"TEXCOORD_1":151
					},
					"indices":43,
					"material":0
				}
			]
		},
		{
			"name":"Mesh.035",
			"primitives":[
				{
					"attributes":{
						"POSITION":152,
						"NORMAL":153,
						"TEXCOORD_0":154,
						"TEXCOORD_1":155
					},
					"indices":156,
					"material":0
				}
			]
		},
		{
			"name":"Mesh.036",
			"primitives":[
				{
					"attributes":{
						"POSITION":157,
						"NORMAL":158,
						"TEXCOORD_0":159,
						"TEXCOORD_1":160
					},
					"indices":9,
					"material":0
				}
			]
		},
		{
			"name":"Mesh.037",
			"primitives":[
				{
					"attributes":{
						"POSITION":161,
						"NORMAL":162,
						"TEXCOORD_0":163,
						"TEXCOORD_1":164
					},
					"indices":9,
					"material":0
				}
			]
		},
		{
			"name":"Mesh.038",
			"primitives":[
				{
					"attributes":{
						"POSITION":165,
						"NORMAL":166,
						"TEXCOORD_0":167,
						"TEXCOORD_1":168
					},
					"indices":4,
					"material":0
				}
			]
		},
		{
			"name":"Mesh.039",
			"primitives":[
				{
					"attributes":{
						"POSITION":169,
						"NORMAL":170,
						"TEXCOORD_0":171,
						"TEXCOORD_1":172
					},
					"indices":173,
					"material":0
				}
			]
		},
		{
			"name":"Mesh.040",
			"primitives":[
				{
					"attributes":{
						"POSITION":174,
						"NORMAL":175,
						"TEXCOORD_0":176,
						"TEXCOORD_1":177
					},
					"indices":178,
					"material":0
				}
			]
		},
		{
			"name":"Mesh.041",
			"primitives":[
				{
					"attributes":{
						"POSITION":179,
						"NORMAL":180,
						"TEXCOORD_0":181,
						"TEXCOORD_1":182
					},
					"indices":183,
					"material":0
				}
			]
		},
		{
			"name":"Mesh.042",
			"primitives":[
				{
					"attributes":{
						"POSITION":184,
						"NORMAL":185,
						"TEXCOORD_0":186,
						"TEXCOORD_1":187
					},
					"indices":188,
					"material":0
				}
			]
		},
		{
			"name":"Mesh.043",
			"primitives":[
				{
					"attributes":{
						"POSITION":189,
						"NORMAL":190,
						"TEXCOORD_0":191,
						"TEXCOORD_1":192
					},
					"indices":188,
					"material":0
				}
			]
		},
		{
			"name":"Mesh.044",
			"primitives":[
				{
					"attributes":{
						"POSITION":193,
						"NORMAL":194,
						"TEXCOORD_0":195,
						"TEXCOORD_1":196
					},
					"indices":197,
					"material":0
				}
			]
		},
		{
			"name":"Mesh.045",
			"primitives":[
				{
					"attributes":{
						"POSITION":198,
						"NORMAL":199,
						"TEXCOORD_0":200,
						"TEXCOORD_1":201
					},
					"indices":9,
					"material":0
				}
			]
		},
		{
			"name":"Mesh.046",
			"primitives":[
				{
					"attributes":{
						"POSITION":202,
						"NORMAL":203,
						"TEXCOORD_0":204,
						"TEXCOORD_1":205
					},
					"indices":206,
					"material":0
				}
			]
		},
		{
			"name":"Mesh.047",
			"primitives":[
				{
					"attributes":{
						"POSITION":207,
						"NORMAL":208,
						"TEXCOORD_0":209,
						"TEXCOORD_1":210
					},
					"indices":211,
					"material":0
				}
			]
		},
		{
			"name":"Mesh.048",
			"primitives":[
				{
					"attributes":{
						"POSITION":212,
						"NORMAL":213,
						"TEXCOORD_0":214,
						"TEXCOORD_1":215
					},
					"indices":216,
					"material":0
				}
			]
		},
		{
			"name":"Cube.003",
			"primitives":[
				{
					"attributes":{
						"POSITION":217,
						"NORMAL":218,
						"TEXCOORD_0":219
					},
					"indices":220
				}
			]
		}
	],
	"accessors":[
		{
			"bufferView":0,
			"componentType":5126,
			"count":20,
			"max":[
				71.42648315429688,
				-10.781312942504883,
				157.38955688476562
			],
			"min":[
				-178.52066040039062,
				-12.922911643981934,
				-58.83219528198242
			],
			"type":"VEC3"
		},
		{
			"bufferView":1,
			"componentType":5126,
			"count":20,
			"type":"VEC3"
		},
		{
			"bufferView":2,
			"componentType":5126,
			"count":20,
			"type":"VEC2"
		},
		{
			"bufferView":3,
			"componentType":5126,
			"count":20,
			"type":"VEC2"
		},
		{
			"bufferView":4,
			"componentType":5123,
			"count":30,
			"type":"SCALAR"
		},
		{
			"bufferView":5,
			"componentType":5126,
			"count":24,
			"max":[
				-2.1353139877319336,
				7.346573352813721,
				17.45336151123047
			],
			"min":[
				-28.712642669677734,
				-4.445751667022705,
				-11.040374755859375
			],
			"type":"VEC3"
		},
		{
			"bufferView":6,
			"componentType":5126,
			"count":24,
			"type":"VEC3"
		},
		{
			"bufferView":7,
			"componentType":5126,
			"count":24,
			"type":"VEC2"
		},
		{
			"bufferView":8,
			"componentType":5126,
			"count":24,
			"type":"VEC2"
		},
		{
			"bufferView":9,
			"componentType":5123,
			"count":36,
			"type":"SCALAR"
		},
		{
			"bufferView":10,
			"componentType":5126,
			"count":20,
			"max":[
				-12.77344799041748,
				7.375420570373535,
				40.896759033203125
			],
			"min":[
				-21.9229736328125,
				-11.549487113952637,
				17.282461166381836
			],
			"type":"VEC3"
		},
		{
			"bufferView":11,
			"componentType":5126,
			"count":20,
			"type":"VEC3"
		},
		{
			"bufferView":12,
			"componentType":5126,
			"count":20,
			"type":"VEC2"
		},
		{
			"bufferView":13,
			"componentType":5126,
			"count":20,
			"type":"VEC2"
		},
		{
			"bufferView":14,
			"componentType":5126,
			"count":24,
			"max":[
				-27.806777954101562,
				4.303280830383301,
				35.38671112060547
			],
			"min":[
				-47.11528778076172,
				3.3032751083374023,
				33.38671112060547
			],
			"type":"VEC3"
		},
		{
			"bufferView":15,
			"componentType":5126,
			"count":24,
			"type":"VEC3"
		},
		{
			"bufferView":16,
			"componentType":5126,
			"count":24,
			"type":"VEC2"
		},
		{
			"bufferView":17,
			"componentType":5126,
			"count":24,
			"type":"VEC2"
		},
		{
			"bufferView":18,
			"componentType":5126,
			"count":24,
			"max":[
				-45.1373176574707,
				4.330628395080566,
				33.978736877441406
			],
			"min":[
				-47.137332916259766,
				3.330620050430298,
				29.444622039794922
			],
			"type":"VEC3"
		},
		{
			"bufferView":19,
			"componentType":5126,
			"count":24,
			"type":"VEC3"
		},
		{
			"bufferView":20,
			"componentType":5126,
			"count":24,
			"type":"VEC2"
		},
		{
			"bufferView":21,
			"componentType":5126,
			"count":24,
			"type":"VEC2"
		},
		{
			"bufferView":22,
			"componentType":5123,
			"count":36,
			"type":"SCALAR"
		},
		{
			"bufferView":23,
			"componentType":5126,
			"count":24,
			"max":[
				-46.544517517089844,
				4.34928035736084,
				31.44463348388672
			],
			"min":[
				-56.02886199951172,
				3.3492767810821533,
				29.44463348388672
			],
			"type":"VEC3"
		},
		{
			"bufferView":24,
			"componentType":5126,
			"count":24,
			"type":"VEC3"
		},
		{
			"bufferView":25,
			"componentType":5126,
			"count":24,
			"type":"VEC2"
		},
		{
			"bufferView":26,
			"componentType":5126,
			"count":24,
			"type":"VEC2"
		},
		{
			"bufferView":27,
			"componentType":5126,
			"count":24,
			"max":[
				-53.93569564819336,
				4.310429096221924,
				34.41038513183594
			],
			"min":[
				-69.07024383544922,
				-4.458807468414307,
				24.91766357421875
			],
			"type":"VEC3"
		},
		{
			"bufferView":28,
			"componentType":5126,
			"count":24,
			"type":"VEC3"
		},
		{
			"bufferView":29,
			"componentType":5126,
			"count":24,
			"type":"VEC2"
		},
		{
			"bufferView":30,
			"componentType":5126,
			"count":24,
			"type":"VEC2"
		},
		{
			"bufferView":31,
			"componentType":5126,
			"count":20,
			"max":[
				-59.81611633300781,
				3.031032085418701,
				46.01225662231445
			],
			"min":[
				-82.91163635253906,
				-17.89161491394043,
				24.855297088623047
			],
			"type":"VEC3"
		},
		{
			"bufferView":32,
			"componentType":5126,
			"count":20,
			"type":"VEC3"
		},
		{
			"bufferView":33,
			"componentType":5126,
			"count":20,
			"type":"VEC2"
		},
		{
			"bufferView":34,
			"componentType":5126,
			"count":20,
			"type":"VEC2"
		},
		{
			"bufferView":35,
			"componentType":5126,
			"count":24,
			"max":[
				-68.66938781738281,
				3.0310263633728027,
				24.855310440063477
			],
			"min":[
				-78.21025848388672,
				-5.942833423614502,
				17.71162223815918
			],
			"type":"VEC3"
		},
		{
			"bufferView":36,
			"componentType":5126,
			"count":24,
			"type":"VEC3"
		},
		{
			"bufferView":37,
			"componentType":5126,
			"count":24,
			"type":"VEC2"
		},
		{
			"bufferView":38,
			"componentType":5126,
			"count":24,
			"type":"VEC2"
		},
		{
			"bufferView":39,
			"componentType":5126,
			"count":18,
			"max":[
				-69.02627563476562,
				4.210671424865723,
				28.642404556274414
			],
			"min":[
				-70.8036117553711,
				3.0310258865356445,
				24.83418846130371
			],
			"type":"VEC3"
		},
		{
			"bufferView":40,
			"componentType":5126,
			"count":18,
			"type":"VEC3"
		},
		{
			"bufferView":41,
			"componentType":5126,
			"count":18,
			"type":"VEC2"
		},
		{
			"bufferView":42,
			"componentType":5126,
			"count":18,
			"type":"VEC2"
		},
		{
			"bufferView":43,
			"componentType":5123,
			"count":24,
			"type":"SCALAR"
		},
		{
			"bufferView":44,
			"componentType":5126,
			"count":24,
			"max":[
				-77.0869140625,
				4.504939556121826,
				33.11087417602539
			],
			"min":[
				-86.61468505859375,
				-4.458799839019775,
				24.917682647705078
			],
			"type":"VEC3"
		},
		{
			"bufferView":45,
			"componentType":5126,
			"count":24,
			"type":"VEC3"
		},
		{
			"bufferView":46,
			"componentType":5126,
			"count":24,
			"type":"VEC2"
		},
		{
			"bufferView":47,
			"componentType":5126,
			"count":24,
			"type":"VEC2"
		},
		{
			"bufferView":48,
			"componentType":5126,
			"count":20,
			"max":[
				11.154677391052246,
				10.83248519897461,
				79.2178726196289
			],
			"min":[
				5.121382713317871,
				-22.013315200805664,
				55.773746490478516
			],
			"type":"VEC3"
		},
		{
			"bufferView":49,
			"componentType":5126,
			"count":20,
			"type":"VEC3"
		},
		{
			"bufferView":50,
			"componentType":5126,
			"count":20,
			"type":"VEC2"
		},
		{
			"bufferView":51,
			"componentType":5126,
			"count":20,
			"type":"VEC2"
		},
		{
			"bufferView":52,
			"componentType":5123,
			"count":30,
			"type":"SCALAR"
		},
		{
			"bufferView":53,
			"componentType":5126,
			"count":24,
			"max":[
				9.812196731567383,
				9.975127220153809,
				79.38862609863281
			],
			"min":[
				0.5213756561279297,
				-1.8120265007019043,
				75.27114868164062
			],
			"type":"VEC3"
		},
		{
			"bufferView":54,
			"componentType":5126,
			"count":24,
			"type":"VEC3"
		},
		{
			"bufferView":55,
			"componentType":5126,
			"count":24,
			"type":"VEC2"
		},
		{
			"bufferView":56,
			"componentType":5126,
			"count":24,
			"type":"VEC2"
		},
		{
			"bufferView":57,
			"componentType":5123,
			"count":36,
			"type":"SCALAR"
		},
		{
			"bufferView":58,
			"componentType":5126,
			"count":24,
			"max":[
				3.8301591873168945,
				3.002385139465332,
				70.33033752441406
			],
			"min":[
				-24.143386840820312,
				-8.804099082946777,
				63.7013053894043
			],
			"type":"VEC3"
		},
		{
			"bufferView":59,
			"componentType":5126,
			"count":24,
			"type":"VEC3"
		},
		{
			"bufferView":60,
			"componentType":5126,
			"count":24,
			"type":"VEC2"
		},
		{
			"bufferView":61,
			"componentType":5126,
			"count":24,
			"type":"VEC2"
		},
		{
			"bufferView":62,
			"componentType":5126,
			"count":24,
			"max":[
				-20.67860221862793,
				3.097252130508423,
				91.68052673339844
			],
			"min":[
				-30.265396118164062,
				-8.709248542785645,
				63.70698165893555
			],
			"type":"VEC3"
		},
		{
			"bufferView":63,
			"componentType":5126,
			"count":24,
			"type":"VEC3"
		},
		{
			"bufferView":64,
			"componentType":5126,
			"count":24,
			"type":"VEC2"
		},
		{
			"bufferView":65,
			"componentType":5126,
			"count":24,
			"type":"VEC2"
		},
		{
			"bufferView":66,
			"componentType":5126,
			"count":20,
			"max":[
				43.755104064941406,
				-1.502817153930664,
				105.65158081054688
			],
			"min":[
				-24.88027572631836,
				-13.309313774108887,
				64.86280822753906
			],
			"type":"VEC3"
		},
		{
			"bufferView":67,
			"componentType":5126,
			"count":20,
			"type":"VEC3"
		},
		{
			"bufferView":68,
			"componentType":5126,
			"count":20,
			"type":"VEC2"
		},
		{
			"bufferView":69,
			"componentType":5126,
			"count":20,
			"type":"VEC2"
		},
		{
			"bufferView":70,
			"componentType":5126,
			"count":20,
			"max":[
				11.98181438446045,
				10.832488059997559,
				114.04415893554688
			],
			"min":[
				5.422944068908691,
				-22.013309478759766,
				87.6194076538086
			],
			"type":"VEC3"
		},
		{
			"bufferView":71,
			"componentType":5126,
			"count":20,
			"type":"VEC3"
		},
		{
			"bufferView":72,
			"componentType":5126,
			"count":20,
			"type":"VEC2"
		},
		{
			"bufferView":73,
			"componentType":5126,
			"count":20,
			"type":"VEC2"
		},
		{
			"bufferView":74,
			"componentType":5123,
			"count":30,
			"type":"SCALAR"
		},
		{
			"bufferView":75,
			"componentType":5126,
			"count":24,
			"max":[
				-35.199012756347656,
				3.120837450027466,
				99.94853973388672
			],
			"min":[
				-59.46837615966797,
				-8.685648918151855,
				81.78587341308594
			],
			"type":"VEC3"
		},
		{
			"bufferView":76,
			"componentType":5126,
			"count":24,
			"type":"VEC3"
		},
		{
			"bufferView":77,
			"componentType":5126,
			"count":24,
			"type":"VEC2"
		},
		{
			"bufferView":78,
			"componentType":5126,
			"count":24,
			"type":"VEC2"
		},
		{
			"bufferView":79,
			"componentType":5126,
			"count":24,
			"max":[
				-49.526336669921875,
				3.114834785461426,
				93.1456069946289
			],
			"min":[
				-84.18116760253906,
				-8.691649436950684,
				66.72108459472656
			],
			"type":"VEC3"
		},
		{
			"bufferView":80,
			"componentType":5126,
			"count":24,
			"type":"VEC3"
		},
		{
			"bufferView":81,
			"componentType":5126,
			"count":24,
			"type":"VEC2"
		},
		{
			"bufferView":82,
			"componentType":5126,
			"count":24,
			"type":"VEC2"
		},
		{
			"bufferView":83,
			"componentType":5126,
			"count":24,
			"max":[
				-55.49267578125,
				3.1343705654144287,
				80.01412200927734
			],
			"min":[
				-90.3265380859375,
				-9.443867683410645,
				53.896568298339844
			],
			"type":"VEC3"
		},
		{
			"bufferView":84,
			"componentType":5126,
			"count":24,
			"type":"VEC3"
		},
		{
			"bufferView":85,
			"componentType":5126,
			"count":24,
			"type":"VEC2"
		},
		{
			"bufferView":86,
			"componentType":5126,
			"count":24,
			"type":"VEC2"
		},
		{
			"bufferView":87,
			"componentType":5126,
			"count":24,
			"max":[
				-52.73554229736328,
				3.096968650817871,
				79.64643096923828
			],
			"min":[
				-61.23261260986328,
				-5.8667707443237305,
				50.038333892822266
			],
			"type":"VEC3"
		},
		{
			"bufferView":88,
			"componentType":5126,
			"count":24,
			"type":"VEC3"
		},
		{
			"bufferView":89,
			"componentType":5126,
			"count":24,
			"type":"VEC2"
		},
		{
			"bufferView":90,
			"componentType":5126,
			"count":24,
			"type":"VEC2"
		},
		{
			"bufferView":91,
			"componentType":5126,
			"count":24,
			"max":[
				-91.33684539794922,
				4.875723838806152,
				86.19377136230469
			],
			"min":[
				-96.53565216064453,
				3.6069631576538086,
				81.12346649169922
			],
			"type":"VEC3"
		},
		{
			"bufferView":92,
			"componentType":5126,
			"count":24,
			"type":"VEC3"
		},
		{
			"bufferView":93,
			"componentType":5126,
			"count":24,
			"type":"VEC2"
		},
		{
			"bufferView":94,
			"componentType":5126,
			"count":24,
			"type":"VEC2"
		},
		{
			"bufferView":95,
			"componentType":5126,
			"count":24,
			"max":[
				-87.66728210449219,
				5.530163764953613,
				64.65210723876953
			],
			"min":[
				-95.8604736328125,
				-3.433573007583618,
				55.12432861328125
			],
			"type":"VEC3"
		},
		{
			"bufferView":96,
			"componentType":5126,
			"count":24,
			"type":"VEC3"
		},
		{
			"bufferView":97,
			"componentType":5126,
			"count":24,
			"type":"VEC2"
		},
		{
			"bufferView":98,
			"componentType":5126,
			"count":24,
			"type":"VEC2"
		},
		{
			"bufferView":99,
			"componentType":5126,
			"count":24,
			"max":[
				-94.6810531616211,
				3.74055552482605,
				64.89511108398438
			],
			"min":[
				-104.96730041503906,
				-3.786412477493286,
				54.058494567871094
			],
			"type":"VEC3"
		},
		{
			"bufferView":100,
			"componentType":5126,
			"count":24,
			"type":"VEC3"
		},
		{
			"bufferView":101,
			"componentType":5126,
			"count":24,
			"type":"VEC2"
		},
		{
			"bufferView":102,
			"componentType":5126,
			"count":24,
			"type":"VEC2"
		},
		{
			"bufferView":103,
			"componentType":5126,
			"count":24,
			"max":[
				-69.23246002197266,
				1.3790321350097656,
				106.86866760253906
			],
			"min":[
				-77.42566680908203,
				-7.584708213806152,
				92.35761260986328
			],
			"type":"VEC3"
		},
		{
			"bufferView":104,
			"componentType":5126,
			"count":24,
			"type":"VEC3"
		},
		{
			"bufferView":105,
			"componentType":5126,
			"count":24,
			"type":"VEC2"
		},
		{
			"bufferView":106,
			"componentType":5126,
			"count":24,
			"type":"VEC2"
		},
		{
			"bufferView":107,
			"componentType":5126,
			"count":24,
			"max":[
				-61.22045135498047,
				1.3790295124053955,
				105.11003112792969
			],
			"min":[
				-69.41366577148438,
				-7.584711074829102,
				90.59898376464844
			],
			"type":"VEC3"
		},
		{
			"bufferView":108,
			"componentType":5126,
			"count":24,
			"type":"VEC3"
		},
		{
			"bufferView":109,
			"componentType":5126,
			"count":24,
			"type":"VEC2"
		},
		{
			"bufferView":110,
			"componentType":5126,
			"count":24,
			"type":"VEC2"
		},
		{
			"bufferView":111,
			"componentType":5126,
			"count":24,
			"max":[
				-66.0328598022461,
				1.7858511209487915,
				95.13932037353516
			],
			"min":[
				-79.81465148925781,
				0.8025189638137817,
				93.13929748535156
			],
			"type":"VEC3"
		},
		{
			"bufferView":112,
			"componentType":5126,
			"count":24,
			"type":"VEC3"
		},
		{
			"bufferView":113,
			"componentType":5126,
			"count":24,
			"type":"VEC2"
		},
		{
			"bufferView":114,
			"componentType":5126,
			"count":24,
			"type":"VEC2"
		},
		{
			"bufferView":115,
			"componentType":5126,
			"count":24,
			"max":[
				-51.89140319824219,
				1.770654559135437,
				95.13932037353516
			],
			"min":[
				-65.63746643066406,
				-1.6073285341262817,
				93.13929748535156
			],
			"type":"VEC3"
		},
		{
			"bufferView":116,
			"componentType":5126,
			"count":24,
			"type":"VEC3"
		},
		{
			"bufferView":117,
			"componentType":5126,
			"count":24,
			"type":"VEC2"
		},
		{
			"bufferView":118,
			"componentType":5126,
			"count":24,
			"type":"VEC2"
		},
		{
			"bufferView":119,
			"componentType":5123,
			"count":36,
			"type":"SCALAR"
		},
		{
			"bufferView":120,
			"componentType":5126,
			"count":24,
			"max":[
				-18.957622528076172,
				4.316064834594727,
				36.116455078125
			],
			"min":[
				-28.10715103149414,
				2.31606125831604,
				32.6164436340332
			],
			"type":"VEC3"
		},
		{
			"bufferView":121,
			"componentType":5126,
			"count":24,
			"type":"VEC3"
		},
		{
			"bufferView":122,
			"componentType":5126,
			"count":24,
			"type":"VEC2"
		},
		{
			"bufferView":123,
			"componentType":5126,
			"count":24,
			"type":"VEC2"
		},
		{
			"bufferView":124,
			"componentType":5126,
			"count":68,
			"max":[
				-0.0423583984375,
				18.260345458984375,
				1.39166259765625
			],
			"min":[
				-32.263427734375,
				-22.772762298583984,
				-10.902740478515625
			],
			"type":"VEC3"
		},
		{
			"bufferView":125,
			"componentType":5126,
			"count":68,
			"type":"VEC3"
		},
		{
			"bufferView":126,
			"componentType":5126,
			"count":68,
			"type":"VEC2"
		},
		{
			"bufferView":127,
			"componentType":5126,
			"count":68,
			"type":"VEC2"
		},
		{
			"bufferView":128,
			"componentType":5123,
			"count":102,
			"type":"SCALAR"
		},
		{
			"bufferView":129,
			"componentType":5126,
			"count":60,
			"max":[
				-12.47773551940918,
				7.835869312286377,
				8.448843955993652
			],
			"min":[
				-20.227752685546875,
				7.200761318206787,
				0.3089752197265625
			],
			"type":"VEC3"
		},
		{
			"bufferView":130,
			"componentType":5126,
			"count":60,
			"type":"VEC3"
		},
		{
			"bufferView":131,
			"componentType":5126,
			"count":60,
			"type":"VEC2"
		},
		{
			"bufferView":132,
			"componentType":5126,
			"count":60,
			"type":"VEC2"
		},
		{
			"bufferView":133,
			"componentType":5123,
			"count":108,
			"type":"SCALAR"
		},
		{
			"bufferView":134,
			"componentType":5126,
			"count":60,
			"max":[
				-13.42774772644043,
				8.235869407653809,
				6.958449363708496
			],
			"min":[
				-18.927749633789062,
				7.600761413574219,
				0.6643624305725098
			],
			"type":"VEC3"
		},
		{
			"bufferView":135,
			"componentType":5126,
			"count":60,
			"type":"VEC3"
		},
		{
			"bufferView":136,
			"componentType":5126,
			"count":60,
			"type":"VEC2"
		},
		{
			"bufferView":137,
			"componentType":5126,
			"count":60,
			"type":"VEC2"
		},
		{
			"bufferView":138,
			"componentType":5123,
			"count":108,
			"type":"SCALAR"
		},
		{
			"bufferView":139,
			"componentType":5126,
			"count":60,
			"max":[
				-14.289501190185547,
				8.735870361328125,
				5.609418869018555
			],
			"min":[
				-17.923919677734375,
				8.100762367248535,
				0.7026152610778809
			],
			"type":"VEC3"
		},
		{
			"bufferView":140,
			"componentType":5126,
			"count":60,
			"type":"VEC3"
		},
		{
			"bufferView":141,
			"componentType":5126,
			"count":60,
			"type":"VEC2"
		},
		{
			"bufferView":142,
			"componentType":5126,
			"count":60,
			"type":"VEC2"
		},
		{
			"bufferView":143,
			"componentType":5123,
			"count":108,
			"type":"SCALAR"
		},
		{
			"bufferView":144,
			"componentType":5126,
			"count":24,
			"max":[
				-14.349897384643555,
				13.470430374145508,
				2.295210361480713
			],
			"min":[
				-17.559844970703125,
				8.328181266784668,
				-1.6999101638793945
			],
			"type":"VEC3"
		},
		{
			"bufferView":145,
			"componentType":5126,
			"count":24,
			"type":"VEC3"
		},
		{
			"bufferView":146,
			"componentType":5126,
			"count":24,
			"type":"VEC2"
		},
		{
			"bufferView":147,
			"componentType":5126,
			"count":24,
			"type":"VEC2"
		},
		{
			"bufferView":148,
			"componentType":5126,
			"count":18,
			"max":[
				-21.8704833984375,
				7.344491481781006,
				36.1087760925293
			],
			"min":[
				-26.67047882080078,
				4.303860187530518,
				32.6236572265625
			],
			"type":"VEC3"
		},
		{
			"bufferView":149,
			"componentType":5126,
			"count":18,
			"type":"VEC3"
		},
		{
			"bufferView":150,
			"componentType":5126,
			"count":18,
			"type":"VEC2"
		},
		{
			"bufferView":151,
			"componentType":5126,
			"count":18,
			"type":"VEC2"
		},
		{
			"bufferView":152,
			"componentType":5126,
			"count":24,
			"max":[
				-91.82283020019531,
				5.4426774978637695,
				82.13705444335938
			],
			"min":[
				-93.82286071777344,
				0.7986152172088623,
				76.85740661621094
			],
			"type":"VEC3"
		},
		{
			"bufferView":153,
			"componentType":5126,
			"count":24,
			"type":"VEC3"
		},
		{
			"bufferView":154,
			"componentType":5126,
			"count":24,
			"type":"VEC2"
		},
		{
			"bufferView":155,
			"componentType":5126,
			"count":24,
			"type":"VEC2"
		},
		{
			"bufferView":156,
			"componentType":5123,
			"count":36,
			"type":"SCALAR"
		},
		{
			"bufferView":157,
			"componentType":5126,
			"count":24,
			"max":[
				-79.33564758300781,
				4.7342681884765625,
				96.32321166992188
			],
			"min":[
				-87.52887725830078,
				-4.2294721603393555,
				87.09738159179688
			],
			"type":"VEC3"
		},
		{
			"bufferView":158,
			"componentType":5126,
			"count":24,
			"type":"VEC3"
		},
		{
			"bufferView":159,
			"componentType":5126,
			"count":24,
			"type":"VEC2"
		},
		{
			"bufferView":160,
			"componentType":5126,
			"count":24,
			"type":"VEC2"
		},
		{
			"bufferView":161,
			"componentType":5126,
			"count":24,
			"max":[
				-43.11954879760742,
				-1.090348243713379,
				6.208465576171875
			],
			"min":[
				-52.162147521972656,
				-13.393089294433594,
				-2.4133987426757812
			],
			"type":"VEC3"
		},
		{
			"bufferView":162,
			"componentType":5126,
			"count":24,
			"type":"VEC3"
		},
		{
			"bufferView":163,
			"componentType":5126,
			"count":24,
			"type":"VEC2"
		},
		{
			"bufferView":164,
			"componentType":5126,
			"count":24,
			"type":"VEC2"
		},
		{
			"bufferView":165,
			"componentType":5126,
			"count":20,
			"max":[
				-43.92832946777344,
				-5.658203125,
				14.756584167480469
			],
			"min":[
				-52.162147521972656,
				-17.9609375,
				6.1347198486328125
			],
			"type":"VEC3"
		},
		{
			"bufferView":166,
			"componentType":5126,
			"count":20,
			"type":"VEC3"
		},
		{
			"bufferView":167,
			"componentType":5126,
			"count":20,
			"type":"VEC2"
		},
		{
			"bufferView":168,
			"componentType":5126,
			"count":20,
			"type":"VEC2"
		},
		{
			"bufferView":169,
			"componentType":5126,
			"count":24,
			"max":[
				-76.63538360595703,
				4.371713638305664,
				46.63719940185547
			],
			"min":[
				-80.88542175292969,
				2.7780237197875977,
				44.33782196044922
			],
			"type":"VEC3"
		},
		{
			"bufferView":170,
			"componentType":5126,
			"count":24,
			"type":"VEC3"
		},
		{
			"bufferView":171,
			"componentType":5126,
			"count":24,
			"type":"VEC2"
		},
		{
			"bufferView":172,
			"componentType":5126,
			"count":24,
			"type":"VEC2"
		},
		{
			"bufferView":173,
			"componentType":5123,
			"count":36,
			"type":"SCALAR"
		},
		{
			"bufferView":174,
			"componentType":5126,
			"count":26,
			"max":[
				-76.2677993774414,
				4.30839729309082,
				53.84086608886719
			],
			"min":[
				-80.51783752441406,
				3.871081829071045,
				46.452964782714844
			],
			"type":"VEC3"
		},
		{
			"bufferView":175,
			"componentType":5126,
			"count":26,
			"type":"VEC3"
		},
		{
			"bufferView":176,
			"componentType":5126,
			"count":26,
			"type":"VEC2"
		},
		{
			"bufferView":177,
			"componentType":5126,
			"count":26,
			"type":"VEC2"
		},
		{
			"bufferView":178,
			"componentType":5123,
			"count":36,
			"type":"SCALAR"
		},
		{
			"bufferView":179,
			"componentType":5126,
			"count":26,
			"max":[
				-76.2392807006836,
				4.371710777282715,
				56.01774597167969
			],
			"min":[
				-80.48932647705078,
				2.7780208587646484,
				53.71836853027344
			],
			"type":"VEC3"
		},
		{
			"bufferView":180,
			"componentType":5126,
			"count":26,
			"type":"VEC3"
		},
		{
			"bufferView":181,
			"componentType":5126,
			"count":26,
			"type":"VEC2"
		},
		{
			"bufferView":182,
			"componentType":5126,
			"count":26,
			"type":"VEC2"
		},
		{
			"bufferView":183,
			"componentType":5123,
			"count":36,
			"type":"SCALAR"
		},
		{
			"bufferView":184,
			"componentType":5126,
			"count":26,
			"max":[
				-76.57249450683594,
				5.280092239379883,
				53.47328186035156
			],
			"min":[
				-76.8294677734375,
				4.1372151374816895,
				46.76274871826172
			],
			"type":"VEC3"
		},
		{
			"bufferView":185,
			"componentType":5126,
			"count":26,
			"type":"VEC3"
		},
		{
			"bufferView":186,
			"componentType":5126,
			"count":26,
			"type":"VEC2"
		},
		{
			"bufferView":187,
			"componentType":5126,
			"count":26,
			"type":"VEC2"
		},
		{
			"bufferView":188,
			"componentType":5123,
			"count":36,
			"type":"SCALAR"
		},
		{
			"bufferView":189,
			"componentType":5126,
			"count":26,
			"max":[
				-80.11695861816406,
				5.280095100402832,
				53.4732666015625
			],
			"min":[
				-80.37393188476562,
				4.137217998504639,
				46.762733459472656
			],
			"type":"VEC3"
		},
		{
			"bufferView":190,
			"componentType":5126,
			"count":26,
			"type":"VEC3"
		},
		{
			"bufferView":191,
			"componentType":5126,
			"count":26,
			"type":"VEC2"
		},
		{
			"bufferView":192,
			"componentType":5126,
			"count":26,
			"type":"VEC2"
		},
		{
			"bufferView":193,
			"componentType":5126,
			"count":26,
			"max":[
				-37.86027145385742,
				4.371721267700195,
				88.76197052001953
			],
			"min":[
				-40.15964889526367,
				2.7780308723449707,
				84.51192474365234
			],
			"type":"VEC3"
		},
		{
			"bufferView":194,
			"componentType":5126,
			"count":26,
			"type":"VEC3"
		},
		{
			"bufferView":195,
			"componentType":5126,
			"count":26,
			"type":"VEC2"
		},
		{
			"bufferView":196,
			"componentType":5126,
			"count":26,
			"type":"VEC2"
		},
		{
			"bufferView":197,
			"componentType":5123,
			"count":36,
			"type":"SCALAR"
		},
		{
			"bufferView":198,
			"componentType":5126,
			"count":24,
			"max":[
				-30.59486961364746,
				4.308407306671143,
				88.73345184326172
			],
			"min":[
				-37.98276901245117,
				3.871091842651367,
				84.48341369628906
			],
			"type":"VEC3"
		},
		{
			"bufferView":199,
			"componentType":5126,
			"count":24,
			"type":"VEC3"
		},
		{
			"bufferView":200,
			"componentType":5126,
			"count":24,
			"type":"VEC2"
		},
		{
			"bufferView":201,
			"componentType":5126,
			"count":24,
			"type":"VEC2"
		},
		{
			"bufferView":202,
			"componentType":5126,
			"count":28,
			"max":[
				-30.90465545654297,
				5.280102252960205,
				88.42874908447266
			],
			"min":[
				-37.61518859863281,
				4.137225151062012,
				88.1717758178711
			],
			"type":"VEC3"
		},
		{
			"bufferView":203,
			"componentType":5126,
			"count":28,
			"type":"VEC3"
		},
		{
			"bufferView":204,
			"componentType":5126,
			"count":28,
			"type":"VEC2"
		},
		{
			"bufferView":205,
			"componentType":5126,
			"count":28,
			"type":"VEC2"
		},
		{
			"bufferView":206,
			"componentType":5123,
			"count":36,
			"type":"SCALAR"
		},
		{
			"bufferView":207,
			"componentType":5126,
			"count":30,
			"max":[
				-30.90464210510254,
				5.280105113983154,
				84.88429260253906
			],
			"min":[
				-37.61517333984375,
				4.137228012084961,
				84.6273193359375
			],
			"type":"VEC3"
		},
		{
			"bufferView":208,
			"componentType":5126,
			"count":30,
			"type":"VEC3"
		},
		{
			"bufferView":209,
			"componentType":5126,
			"count":30,
			"type":"VEC2"
		},
		{
			"bufferView":210,
			"componentType":5126,
			"count":30,
			"type":"VEC2"
		},
		{
			"bufferView":211,
			"componentType":5123,
			"count":36,
			"type":"SCALAR"
		},
		{
			"bufferView":212,
			"componentType":5126,
			"count":24,
			"max":[
				-28.479724884033203,
				4.371723175048828,
				88.3658676147461
			],
			"min":[
				-30.779102325439453,
				2.77803373336792,
				84.11582946777344
			],
			"type":"VEC3"
		},
		{
			"bufferView":213,
			"componentType":5126,
			"count":24,
			"type":"VEC3"
		},
		{
			"bufferView":214,
			"componentType":5126,
			"count":24,
			"type":"VEC2"
		},
		{
			"bufferView":215,
			"componentType":5126,
			"count":24,
			"type":"VEC2"
		},
		{
			"bufferView":216,
			"componentType":5123,
			"count":36,
			"type":"SCALAR"
		},
		{
			"bufferView":217,
			"componentType":5126,
			"count":24,
			"max":[
				-22.25650405883789,
				13.638422966003418,
				8.246025085449219
			],
			"min":[
				-23.25650405883789,
				12.638422966003418,
				7.246025085449219
			],
			"type":"VEC3"
		},
		{
			"bufferView":218,
			"componentType":5126,
			"count":24,
			"type":"VEC3"
		},
		{
			"bufferView":219,
			"componentType":5126,
			"count":24,
			"type":"VEC2"
		},
		{
			"bufferView":220,
			"componentType":5123,
			"count":36,
			"type":"SCALAR"
		}
	],
	"bufferViews":[
		{
			"buffer":0,
			"byteLength":240,
			"byteOffset":0,
			"target":34962
		},
		{
			"buffer":0,
			"byteLength":240,
			"byteOffset":240,
			"target":34962
		},
		{
			"buffer":0,
			"byteLength":160,
			"byteOffset":480,
			"target":34962
		},
		{
			"buffer":0,
			"byteLength":160,
			"byteOffset":640,
			"target":34962
		},
		{
			"buffer":0,
			"byteLength":60,
			"byteOffset":800,
			"target":34963
		},
		{
			"buffer":0,
			"byteLength":288,
			"byteOffset":860,
			"target":34962
		},
		{
			"buffer":0,
			"byteLength":288,
			"byteOffset":1148,
			"target":34962
		},
		{
			"buffer":0,
			"byteLength":192,
			"byteOffset":1436,
			"target":34962
		},
		{
			"buffer":0,
			"byteLength":192,
			"byteOffset":1628,
			"target":34962
		},
		{
			"buffer":0,
			"byteLength":72,
			"byteOffset":1820,
			"target":34963
		},
		{
			"buffer":0,
			"byteLength":240,
			"byteOffset":1892,
			"target":34962
		},
		{
			"buffer":0,
			"byteLength":240,
			"byteOffset":2132,
			"target":34962
		},
		{
			"buffer":0,
			"byteLength":160,
			"byteOffset":2372,
			"target":34962
		},
		{
			"buffer":0,
			"byteLength":160,
			"byteOffset":2532,
			"target":34962
		},
		{
			"buffer":0,
			"byteLength":288,
			"byteOffset":2692,
			"target":34962
		},
		{
			"buffer":0,
			"byteLength":288,
			"byteOffset":2980,
			"target":34962
		},
		{
			"buffer":0,
			"byteLength":192,
			"byteOffset":3268,
			"target":34962
		},
		{
			"buffer":0,
			"byteLength":192,
			"byteOffset":3460,
			"target":34962
		},
		{
			"buffer":0,
			"byteLength":288,
			"byteOffset":3652,
			"target":34962
		},
		{
			"buffer":0,
			"byteLength":288,
			"byteOffset":3940,
			"target":34962
		},
		{
			"buffer":0,
			"byteLength":192,
			"byteOffset":4228,
			"target":34962
		},
		{
			"buffer":0,
			"byteLength":192,
			"byteOffset":4420,
			"target":34962
		},
		{
			"buffer":0,
			"byteLength":72,
			"byteOffset":4612,
			"target":34963
		},
		{
			"buffer":0,
			"byteLength":288,
			"byteOffset":4684,
			"target":34962
		},
		{
			"buffer":0,
			"byteLength":288,
			"byteOffset":4972,
			"target":34962
		},
		{
			"buffer":0,
			"byteLength":192,
			"byteOffset":5260,
			"target":34962
		},
		{
			"buffer":0,
			"byteLength":192,
			"byteOffset":5452,
			"target":34962
		},
		{
			"buffer":0,
			"byteLength":288,
			"byteOffset":5644,
			"target":34962
		},
		{
			"buffer":0,
			"byteLength":288,
			"byteOffset":5932,
			"target":34962
		},
		{
			"buffer":0,
			"byteLength":192,
			"byteOffset":6220,
			"target":34962
		},
		{
			"buffer":0,
			"byteLength":192,
			"byteOffset":6412,
			"target":34962
		},
		{
			"buffer":0,
			"byteLength":240,
			"byteOffset":6604,
			"target":34962
		},
		{
			"buffer":0,
			"byteLength":240,
			"byteOffset":6844,
			"target":34962
		},
		{
			"buffer":0,
			"byteLength":160,
			"byteOffset":7084,
			"target":34962
		},
		{
			"buffer":0,
			"byteLength":160,
			"byteOffset":7244,
			"target":34962
		},
		{
			"buffer":0,
			"byteLength":288,
			"byteOffset":7404,
			"target":34962
		},
		{
			"buffer":0,
			"byteLength":288,
			"byteOffset":7692,
			"target":34962
		},
		{
			"buffer":0,
			"byteLength":192,
			"byteOffset":7980,
			"target":34962
		},
		{
			"buffer":0,
			"byteLength":192,
			"byteOffset":8172,
			"target":34962
		},
		{
			"buffer":0,
			"byteLength":216,
			"byteOffset":8364,
			"target":34962
		},
		{
			"buffer":0,
			"byteLength":216,
			"byteOffset":8580,
			"target":34962
		},
		{
			"buffer":0,
			"byteLength":144,
			"byteOffset":8796,
			"target":34962
		},
		{
			"buffer":0,
			"byteLength":144,
			"byteOffset":8940,
			"target":34962
		},
		{
			"buffer":0,
			"byteLength":48,
			"byteOffset":9084,
			"target":34963
		},
		{
			"buffer":0,
			"byteLength":288,
			"byteOffset":9132,
			"target":34962
		},
		{
			"buffer":0,
			"byteLength":288,
			"byteOffset":9420,
			"target":34962
		},
		{
			"buffer":0,
			"byteLength":192,
			"byteOffset":9708,
			"target":34962
		},
		{
			"buffer":0,
			"byteLength":192,
			"byteOffset":9900,
			"target":34962
		},
		{
			"buffer":0,
			"byteLength":240,
			"byteOffset":10092,
			"target":34962
		},
		{
			"buffer":0,
			"byteLength":240,
			"byteOffset":10332,
			"target":34962
		},
		{
			"buffer":0,
			"byteLength":160,
			"byteOffset":10572,
			"target":34962
		},
		{
			"buffer":0,
			"byteLength":160,
			"byteOffset":10732,
			"target":34962
		},
		{
			"buffer":0,
			"byteLength":60,
			"byteOffset":10892,
			"target":34963
		},
		{
			"buffer":0,
			"byteLength":288,
			"byteOffset":10952,
			"target":34962
		},
		{
			"buffer":0,
			"byteLength":288,
			"byteOffset":11240,
			"target":34962
		},
		{
			"buffer":0,
			"byteLength":192,
			"byteOffset":11528,
			"target":34962
		},
		{
			"buffer":0,
			"byteLength":192,
			"byteOffset":11720,
			"target":34962
		},
		{
			"buffer":0,
			"byteLength":72,
			"byteOffset":11912,
			"target":34963
		},
		{
			"buffer":0,
			"byteLength":288,
			"byteOffset":11984,
			"target":34962
		},
		{
			"buffer":0,
			"byteLength":288,
			"byteOffset":12272,
			"target":34962
		},
		{
			"buffer":0,
			"byteLength":192,
			"byteOffset":12560,
			"target":34962
		},
		{
			"buffer":0,
			"byteLength":192,
			"byteOffset":12752,
			"target":34962
		},
		{
			"buffer":0,
			"byteLength":288,
			"byteOffset":12944,
			"target":34962
		},
		{
			"buffer":0,
			"byteLength":288,
			"byteOffset":13232,
			"target":34962
		},
		{
			"buffer":0,
			"byteLength":192,
			"byteOffset":13520,
			"target":34962
		},
		{
			"buffer":0,
			"byteLength":192,
			"byteOffset":13712,
			"target":34962
		},
		{
			"buffer":0,
			"byteLength":240,
			"byteOffset":13904,
			"target":34962
		},
		{
			"buffer":0,
			"byteLength":240,
			"byteOffset":14144,
			"target":34962
		},
		{
			"buffer":0,
			"byteLength":160,
			"byteOffset":14384,
			"target":34962
		},
		{
			"buffer":0,
			"byteLength":160,
			"byteOffset":14544,
			"target":34962
		},
		{
			"buffer":0,
			"byteLength":240,
			"byteOffset":14704,
			"target":34962
		},
		{
			"buffer":0,
			"byteLength":240,
			"byteOffset":14944,
			"target":34962
		},
		{
			"buffer":0,
			"byteLength":160,
			"byteOffset":15184,
			"target":34962
		},
		{
			"buffer":0,
			"byteLength":160,
			"byteOffset":15344,
			"target":34962
		},
		{
			"buffer":0,
			"byteLength":60,
			"byteOffset":15504,
			"target":34963
		},
		{
			"buffer":0,
			"byteLength":288,
			"byteOffset":15564,
			"target":34962
		},
		{
			"buffer":0,
			"byteLength":288,
			"byteOffset":15852,
			"target":34962
		},
		{
			"buffer":0,
			"byteLength":192,
			"byteOffset":16140,
			"target":34962
		},
		{
			"buffer":0,
			"byteLength":192,
			"byteOffset":16332,
			"target":34962
		},
		{
			"buffer":0,
			"byteLength":288,
			"byteOffset":16524,
			"target":34962
		},
		{
			"buffer":0,
			"byteLength":288,
			"byteOffset":16812,
			"target":34962
		},
		{
			"buffer":0,
			"byteLength":192,
			"byteOffset":17100,
			"target":34962
		},
		{
			"buffer":0,
			"byteLength":192,
			"byteOffset":17292,
			"target":34962
		},
		{
			"buffer":0,
			"byteLength":288,
			"byteOffset":17484,
			"target":34962
		},
		{
			"buffer":0,
			"byteLength":288,
			"byteOffset":17772,
			"target":34962
		},
		{
			"buffer":0,
			"byteLength":192,
			"byteOffset":18060,
			"target":34962
		},
		{
			"buffer":0,
			"byteLength":192,
			"byteOffset":18252,
			"target":34962
		},
		{
			"buffer":0,
			"byteLength":288,
			"byteOffset":18444,
			"target":34962
		},
		{
			"buffer":0,
			"byteLength":288,
			"byteOffset":18732,
			"target":34962
		},
		{
			"buffer":0,
			"byteLength":192,
			"byteOffset":19020,
			"target":34962
		},
		{
			"buffer":0,
			"byteLength":192,
			"byteOffset":19212,
			"target":34962
		},
		{
			"buffer":0,
			"byteLength":288,
			"byteOffset":19404,
			"target":34962
		},
		{
			"buffer":0,
			"byteLength":288,
			"byteOffset":19692,
			"target":34962
		},
		{
			"buffer":0,
			"byteLength":192,
			"byteOffset":19980,
			"target":34962
		},
		{
			"buffer":0,
			"byteLength":192,
			"byteOffset":20172,
			"target":34962
		},
		{
			"buffer":0,
			"byteLength":288,
			"byteOffset":20364,
			"target":34962
		},
		{
			"buffer":0,
			"byteLength":288,
			"byteOffset":20652,
			"target":34962
		},
		{
			"buffer":0,
			"byteLength":192,
			"byteOffset":20940,
			"target":34962
		},
		{
			"buffer":0,
			"byteLength":192,
			"byteOffset":21132,
			"target":34962
		},
		{
			"buffer":0,
			"byteLength":288,
			"byteOffset":21324,
			"target":34962
		},
		{
			"buffer":0,
			"byteLength":288,
			"byteOffset":21612,
			"target":34962
		},
		{
			"buffer":0,
			"byteLength":192,
			"byteOffset":21900,
			"target":34962
		},
		{
			"buffer":0,
			"byteLength":192,
			"byteOffset":22092,
			"target":34962
		},
		{
			"buffer":0,
			"byteLength":288,
			"byteOffset":22284,
			"target":34962
		},
		{
			"buffer":0,
			"byteLength":288,
			"byteOffset":22572,
			"target":34962
		},
		{
			"buffer":0,
			"byteLength":192,
			"byteOffset":22860,
			"target":34962
		},
		{
			"buffer":0,
			"byteLength":192,
			"byteOffset":23052,
			"target":34962
		},
		{
			"buffer":0,
			"byteLength":288,
			"byteOffset":23244,
			"target":34962
		},
		{
			"buffer":0,
			"byteLength":288,
			"byteOffset":23532,
			"target":34962
		},
		{
			"buffer":0,
			"byteLength":192,
			"byteOffset":23820,
			"target":34962
		},
		{
			"buffer":0,
			"byteLength":192,
			"byteOffset":24012,
			"target":34962
		},
		{
			"buffer":0,
			"byteLength":288,
			"byteOffset":24204,
			"target":34962
		},
		{
			"buffer":0,
			"byteLength":288,
			"byteOffset":24492,
			"target":34962
		},
		{
			"buffer":0,
			"byteLength":192,
			"byteOffset":24780,
			"target":34962
		},
		{
			"buffer":0,
			"byteLength":192,
			"byteOffset":24972,
			"target":34962
		},
		{
			"buffer":0,
			"byteLength":288,
			"byteOffset":25164,
			"target":34962
		},
		{
			"buffer":0,
			"byteLength":288,
			"byteOffset":25452,
			"target":34962
		},
		{
			"buffer":0,
			"byteLength":192,
			"byteOffset":25740,
			"target":34962
		},
		{
			"buffer":0,
			"byteLength":192,
			"byteOffset":25932,
			"target":34962
		},
		{
			"buffer":0,
			"byteLength":72,
			"byteOffset":26124,
			"target":34963
		},
		{
			"buffer":0,
			"byteLength":288,
			"byteOffset":26196,
			"target":34962
		},
		{
			"buffer":0,
			"byteLength":288,
			"byteOffset":26484,
			"target":34962
		},
		{
			"buffer":0,
			"byteLength":192,
			"byteOffset":26772,
			"target":34962
		},
		{
			"buffer":0,
			"byteLength":192,
			"byteOffset":26964,
			"target":34962
		},
		{
			"buffer":0,
			"byteLength":816,
			"byteOffset":27156,
			"target":34962
		},
		{
			"buffer":0,
			"byteLength":816,
			"byteOffset":27972,
			"target":34962
		},
		{
			"buffer":0,
			"byteLength":544,
			"byteOffset":28788,
			"target":34962
		},
		{
			"buffer":0,
			"byteLength":544,
			"byteOffset":29332,
			"target":34962
		},
		{
			"buffer":0,
			"byteLength":204,
			"byteOffset":29876,
			"target":34963
		},
		{
			"buffer":0,
			"byteLength":720,
			"byteOffset":30080,
			"target":34962
		},
		{
			"buffer":0,
			"byteLength":720,
			"byteOffset":30800,
			"target":34962
		},
		{
			"buffer":0,
			"byteLength":480,
			"byteOffset":31520,
			"target":34962
		},
		{
			"buffer":0,
			"byteLength":480,
			"byteOffset":32000,
			"target":34962
		},
		{
			"buffer":0,
			"byteLength":216,
			"byteOffset":32480,
			"target":34963
		},
		{
			"buffer":0,
			"byteLength":720,
			"byteOffset":32696,
			"target":34962
		},
		{
			"buffer":0,
			"byteLength":720,
			"byteOffset":33416,
			"target":34962
		},
		{
			"buffer":0,
			"byteLength":480,
			"byteOffset":34136,
			"target":34962
		},
		{
			"buffer":0,
			"byteLength":480,
			"byteOffset":34616,
			"target":34962
		},
		{
			"buffer":0,
			"byteLength":216,
			"byteOffset":35096,
			"target":34963
		},
		{
			"buffer":0,
			"byteLength":720,
			"byteOffset":35312,
			"target":34962
		},
		{
			"buffer":0,
			"byteLength":720,
			"byteOffset":36032,
			"target":34962
		},
		{
			"buffer":0,
			"byteLength":480,
			"byteOffset":36752,
			"target":34962
		},
		{
			"buffer":0,
			"byteLength":480,
			"byteOffset":37232,
			"target":34962
		},
		{
			"buffer":0,
			"byteLength":216,
			"byteOffset":37712,
			"target":34963
		},
		{
			"buffer":0,
			"byteLength":288,
			"byteOffset":37928,
			"target":34962
		},
		{
			"buffer":0,
			"byteLength":288,
			"byteOffset":38216,
			"target":34962
		},
		{
			"buffer":0,
			"byteLength":192,
			"byteOffset":38504,
			"target":34962
		},
		{
			"buffer":0,
			"byteLength":192,
			"byteOffset":38696,
			"target":34962
		},
		{
			"buffer":0,
			"byteLength":216,
			"byteOffset":38888,
			"target":34962
		},
		{
			"buffer":0,
			"byteLength":216,
			"byteOffset":39104,
			"target":34962
		},
		{
			"buffer":0,
			"byteLength":144,
			"byteOffset":39320,
			"target":34962
		},
		{
			"buffer":0,
			"byteLength":144,
			"byteOffset":39464,
			"target":34962
		},
		{
			"buffer":0,
			"byteLength":288,
			"byteOffset":39608,
			"target":34962
		},
		{
			"buffer":0,
			"byteLength":288,
			"byteOffset":39896,
			"target":34962
		},
		{
			"buffer":0,
			"byteLength":192,
			"byteOffset":40184,
			"target":34962
		},
		{
			"buffer":0,
			"byteLength":192,
			"byteOffset":40376,
			"target":34962
		},
		{
			"buffer":0,
			"byteLength":72,
			"byteOffset":40568,
			"target":34963
		},
		{
			"buffer":0,
			"byteLength":288,
			"byteOffset":40640,
			"target":34962
		},
		{
			"buffer":0,
			"byteLength":288,
			"byteOffset":40928,
			"target":34962
		},
		{
			"buffer":0,
			"byteLength":192,
			"byteOffset":41216,
			"target":34962
		},
		{
			"buffer":0,
			"byteLength":192,
			"byteOffset":41408,
			"target":34962
		},
		{
			"buffer":0,
			"byteLength":288,
			"byteOffset":41600,
			"target":34962
		},
		{
			"buffer":0,
			"byteLength":288,
			"byteOffset":41888,
			"target":34962
		},
		{
			"buffer":0,
			"byteLength":192,
			"byteOffset":42176,
			"target":34962
		},
		{
			"buffer":0,
			"byteLength":192,
			"byteOffset":42368,
			"target":34962
		},
		{
			"buffer":0,
			"byteLength":240,
			"byteOffset":42560,
			"target":34962
		},
		{
			"buffer":0,
			"byteLength":240,
			"byteOffset":42800,
			"target":34962
		},
		{
			"buffer":0,
			"byteLength":160,
			"byteOffset":43040,
			"target":34962
		},
		{
			"buffer":0,
			"byteLength":160,
			"byteOffset":43200,
			"target":34962
		},
		{
			"buffer":0,
			"byteLength":288,
			"byteOffset":43360,
			"target":34962
		},
		{
			"buffer":0,
			"byteLength":288,
			"byteOffset":43648,
			"target":34962
		},
		{
			"buffer":0,
			"byteLength":192,
			"byteOffset":43936,
			"target":34962
		},
		{
			"buffer":0,
			"byteLength":192,
			"byteOffset":44128,
			"target":34962
		},
		{
			"buffer":0,
			"byteLength":72,
			"byteOffset":44320,
			"target":34963
		},
		{
			"buffer":0,
			"byteLength":312,
			"byteOffset":44392,
			"target":34962
		},
		{
			"buffer":0,
			"byteLength":312,
			"byteOffset":44704,
			"target":34962
		},
		{
			"buffer":0,
			"byteLength":208,
			"byteOffset":45016,
			"target":34962
		},
		{
			"buffer":0,
			"byteLength":208,
			"byteOffset":45224,
			"target":34962
		},
		{
			"buffer":0,
			"byteLength":72,
			"byteOffset":45432,
			"target":34963
		},
		{
			"buffer":0,
			"byteLength":312,
			"byteOffset":45504,
			"target":34962
		},
		{
			"buffer":0,
			"byteLength":312,
			"byteOffset":45816,
			"target":34962
		},
		{
			"buffer":0,
			"byteLength":208,
			"byteOffset":46128,
			"target":34962
		},
		{
			"buffer":0,
			"byteLength":208,
			"byteOffset":46336,
			"target":34962
		},
		{
			"buffer":0,
			"byteLength":72,
			"byteOffset":46544,
			"target":34963
		},
		{
			"buffer":0,
			"byteLength":312,
			"byteOffset":46616,
			"target":34962
		},
		{
			"buffer":0,
			"byteLength":312,
			"byteOffset":46928,
			"target":34962
		},
		{
			"buffer":0,
			"byteLength":208,
			"byteOffset":47240,
			"target":34962
		},
		{
			"buffer":0,
			"byteLength":208,
			"byteOffset":47448,
			"target":34962
		},
		{
			"buffer":0,
			"byteLength":72,
			"byteOffset":47656,
			"target":34963
		},
		{
			"buffer":0,
			"byteLength":312,
			"byteOffset":47728,
			"target":34962
		},
		{
			"buffer":0,
			"byteLength":312,
			"byteOffset":48040,
			"target":34962
		},
		{
			"buffer":0,
			"byteLength":208,
			"byteOffset":48352,
			"target":34962
		},
		{
			"buffer":0,
			"byteLength":208,
			"byteOffset":48560,
			"target":34962
		},
		{
			"buffer":0,
			"byteLength":312,
			"byteOffset":48768,
			"target":34962
		},
		{
			"buffer":0,
			"byteLength":312,
			"byteOffset":49080,
			"target":34962
		},
		{
			"buffer":0,
			"byteLength":208,
			"byteOffset":49392,
			"target":34962
		},
		{
			"buffer":0,
			"byteLength":208,
			"byteOffset":49600,
			"target":34962
		},
		{
			"buffer":0,
			"byteLength":72,
			"byteOffset":49808,
			"target":34963
		},
		{
			"buffer":0,
			"byteLength":288,
			"byteOffset":49880,
			"target":34962
		},
		{
			"buffer":0,
			"byteLength":288,
			"byteOffset":50168,
			"target":34962
		},
		{
			"buffer":0,
			"byteLength":192,
			"byteOffset":50456,
			"target":34962
		},
		{
			"buffer":0,
			"byteLength":192,
			"byteOffset":50648,
			"target":34962
		},
		{
			"buffer":0,
			"byteLength":336,
			"byteOffset":50840,
			"target":34962
		},
		{
			"buffer":0,
			"byteLength":336,
			"byteOffset":51176,
			"target":34962
		},
		{
			"buffer":0,
			"byteLength":224,
			"byteOffset":51512,
			"target":34962
		},
		{
			"buffer":0,
			"byteLength":224,
			"byteOffset":51736,
			"target":34962
		},
		{
			"buffer":0,
			"byteLength":72,
			"byteOffset":51960,
			"target":34963
		},
		{
			"buffer":0,
			"byteLength":360,
			"byteOffset":52032,
			"target":34962
		},
		{
			"buffer":0,
			"byteLength":360,
			"byteOffset":52392,
			"target":34962
		},
		{
			"buffer":0,
			"byteLength":240,
			"byteOffset":52752,
			"target":34962
		},
		{
			"buffer":0,
			"byteLength":240,
			"byteOffset":52992,
			"target":34962
		},
		{
			"buffer":0,
			"byteLength":72,
			"byteOffset":53232,
			"target":34963
		},
		{
			"buffer":0,
			"byteLength":288,
			"byteOffset":53304,
			"target":34962
		},
		{
			"buffer":0,
			"byteLength":288,
			"byteOffset":53592,
			"target":34962
		},
		{
			"buffer":0,
			"byteLength":192,
			"byteOffset":53880,
			"target":34962
		},
		{
			"buffer":0,
			"byteLength":192,
			"byteOffset":54072,
			"target":34962
		},
		{
			"buffer":0,
			"byteLength":72,
			"byteOffset":54264,
			"target":34963
		},
		{
			"buffer":0,
			"byteLength":288,
			"byteOffset":54336,
			"target":34962
		},
		{
			"buffer":0,
			"byteLength":288,
			"byteOffset":54624,
			"target":34962
		},
		{
			"buffer":0,
			"byteLength":192,
			"byteOffset":54912,
			"target":34962
		},
		{
			"buffer":0,
			"byteLength":72,
			"byteOffset":55104,
			"target":34963
		}
	],
	"buffers":[
		{
			"byteLength":55176,
			"uri":"cubeee.bin"
		}
	]
}
