{
	"asset":{
		"generator":"Khronos glTF Blender I/O v4.3.47",
		"version":"2.0"
	},
	"scene":0,
	"scenes":[
		{
			"name":"Scene",
			"nodes":[
				0,
				1,
				2,
				3,
				4,
				5,
				6,
				7
			]
		}
	],
	"nodes":[
		{
			"mesh":0,
			"name":"PR_totem1__LP"
		},
		{
			"mesh":1,
			"name":"PR_totem4__LP"
		},
		{
			"mesh":2,
			"name":"PR_totem5__LP"
		},
		{
			"mesh":3,
			"name":"PR_totem3__LP"
		},
		{
			"mesh":4,
			"name":"PR_totemHead1__LP"
		},
		{
			"mesh":5,
			"name":"PR_totemHead2__LP"
		},
		{
			"mesh":6,
			"name":"PR_totemHead3__LP"
		},
		{
			"mesh":7,
			"name":"PR_totem2__LP"
		}
	],
	"materials":[
		{
			"doubleSided":true,
			"name":"M_EN_Totem1.001",
			"pbrMetallicRoughness":{
				"baseColorFactor":[
					0.5,
					0.5,
					0.5,
					1
				],
				"metallicFactor":0,
				"roughnessFactor":0.5527864098548889
			}
		}
	],
	"meshes":[
		{
			"name":"Mesh.008",
			"primitives":[
				{
					"attributes":{
						"POSITION":0,
						"NORMAL":1,
						"TEXCOORD_0":2
					},
					"indices":3,
					"material":0
				}
			]
		},
		{
			"name":"Mesh.009",
			"primitives":[
				{
					"attributes":{
						"POSITION":4,
						"NORMAL":5,
						"TEXCOORD_0":6
					},
					"indices":7,
					"material":0
				}
			]
		},
		{
			"name":"Mesh.010",
			"primitives":[
				{
					"attributes":{
						"POSITION":8,
						"NORMAL":9,
						"TEXCOORD_0":10
					},
					"indices":11,
					"material":0
				}
			]
		},
		{
			"name":"Mesh.011",
			"primitives":[
				{
					"attributes":{
						"POSITION":12,
						"NORMAL":13,
						"TEXCOORD_0":14
					},
					"indices":15,
					"material":0
				}
			]
		},
		{
			"name":"Mesh.012",
			"primitives":[
				{
					"attributes":{
						"POSITION":16,
						"NORMAL":17,
						"TEXCOORD_0":18
					},
					"indices":19,
					"material":0
				}
			]
		},
		{
			"name":"Mesh.013",
			"primitives":[
				{
					"attributes":{
						"POSITION":20,
						"NORMAL":21,
						"TEXCOORD_0":22
					},
					"indices":23,
					"material":0
				}
			]
		},
		{
			"name":"Mesh.014",
			"primitives":[
				{
					"attributes":{
						"POSITION":24,
						"NORMAL":25,
						"TEXCOORD_0":26
					},
					"indices":27,
					"material":0
				}
			]
		},
		{
			"name":"Mesh.015",
			"primitives":[
				{
					"attributes":{
						"POSITION":28,
						"NORMAL":29,
						"TEXCOORD_0":30
					},
					"indices":31,
					"material":0
				}
			]
		}
	],
	"accessors":[
		{
			"bufferView":0,
			"componentType":5126,
			"count":148,
			"max":[
				0.6640276908874512,
				2.2028067111968994,
				0.5989423394203186
			],
			"min":[
				-0.4879797399044037,
				0.019415535032749176,
				-0.5989423394203186
			],
			"type":"VEC3"
		},
		{
			"bufferView":1,
			"componentType":5126,
			"count":148,
			"type":"VEC3"
		},
		{
			"bufferView":2,
			"componentType":5126,
			"count":148,
			"type":"VEC2"
		},
		{
			"bufferView":3,
			"componentType":5123,
			"count":756,
			"type":"SCALAR"
		},
		{
			"bufferView":4,
			"componentType":5126,
			"count":248,
			"max":[
				0.42220062017440796,
				1.0943893194198608,
				0.45844200253486633
			],
			"min":[
				-0.42220062017440796,
				-0.0508427768945694,
				-0.45844200253486633
			],
			"type":"VEC3"
		},
		{
			"bufferView":5,
			"componentType":5126,
			"count":248,
			"type":"VEC3"
		},
		{
			"bufferView":6,
			"componentType":5126,
			"count":248,
			"type":"VEC2"
		},
		{
			"bufferView":7,
			"componentType":5123,
			"count":1332,
			"type":"SCALAR"
		},
		{
			"bufferView":8,
			"componentType":5126,
			"count":284,
			"max":[
				0.3408917188644409,
				0.9928562045097351,
				0.3747614324092865
			],
			"min":[
				-0.3408917188644409,
				-0.016902578994631767,
				-0.3672603666782379
			],
			"type":"VEC3"
		},
		{
			"bufferView":9,
			"componentType":5126,
			"count":284,
			"type":"VEC3"
		},
		{
			"bufferView":10,
			"componentType":5126,
			"count":284,
			"type":"VEC2"
		},
		{
			"bufferView":11,
			"componentType":5123,
			"count":1548,
			"type":"SCALAR"
		},
		{
			"bufferView":12,
			"componentType":5126,
			"count":246,
			"max":[
				0.4863070547580719,
				1.1932640075683594,
				0.4004749655723572
			],
			"min":[
				-0.48630690574645996,
				0.01450938917696476,
				-0.4004749655723572
			],
			"type":"VEC3"
		},
		{
			"bufferView":13,
			"componentType":5126,
			"count":246,
			"type":"VEC3"
		},
		{
			"bufferView":14,
			"componentType":5126,
			"count":246,
			"type":"VEC2"
		},
		{
			"bufferView":15,
			"componentType":5123,
			"count":1326,
			"type":"SCALAR"
		},
		{
			"bufferView":16,
			"componentType":5126,
			"count":206,
			"max":[
				0.4826335310935974,
				0.3478354215621948,
				0.513023316860199
			],
			"min":[
				-0.4826335310935974,
				-0.07670682668685913,
				-0.513023316860199
			],
			"type":"VEC3"
		},
		{
			"bufferView":17,
			"componentType":5126,
			"count":206,
			"type":"VEC3"
		},
		{
			"bufferView":18,
			"componentType":5126,
			"count":206,
			"type":"VEC2"
		},
		{
			"bufferView":19,
			"componentType":5123,
			"count":1116,
			"type":"SCALAR"
		},
		{
			"bufferView":20,
			"componentType":5126,
			"count":328,
			"max":[
				0.43232405185699463,
				0.4874340295791626,
				0.4283023476600647
			],
			"min":[
				-0.43232405185699463,
				-0.046140916645526886,
				-0.4283023476600647
			],
			"type":"VEC3"
		},
		{
			"bufferView":21,
			"componentType":5126,
			"count":328,
			"type":"VEC3"
		},
		{
			"bufferView":22,
			"componentType":5126,
			"count":328,
			"type":"VEC2"
		},
		{
			"bufferView":23,
			"componentType":5123,
			"count":1812,
			"type":"SCALAR"
		},
		{
			"bufferView":24,
			"componentType":5126,
			"count":266,
			"max":[
				0.44045278429985046,
				0.6101144552230835,
				0.5020107626914978
			],
			"min":[
				-0.44045278429985046,
				-0.04748200625181198,
				-0.5020107626914978
			],
			"type":"VEC3"
		},
		{
			"bufferView":25,
			"componentType":5126,
			"count":266,
			"type":"VEC3"
		},
		{
			"bufferView":26,
			"componentType":5126,
			"count":266,
			"type":"VEC2"
		},
		{
			"bufferView":27,
			"componentType":5123,
			"count":1470,
			"type":"SCALAR"
		},
		{
			"bufferView":28,
			"componentType":5126,
			"count":216,
			"max":[
				0.43365249037742615,
				1.4777392148971558,
				0.47979936003685
			],
			"min":[
				-0.43365249037742615,
				0.04283586144447327,
				-0.47979936003685
			],
			"type":"VEC3"
		},
		{
			"bufferView":29,
			"componentType":5126,
			"count":216,
			"type":"VEC3"
		},
		{
			"bufferView":30,
			"componentType":5126,
			"count":216,
			"type":"VEC2"
		},
		{
			"bufferView":31,
			"componentType":5123,
			"count":1146,
			"type":"SCALAR"
		}
	],
	"bufferViews":[
		{
			"buffer":0,
			"byteLength":1776,
			"byteOffset":0,
			"target":34962
		},
		{
			"buffer":0,
			"byteLength":1776,
			"byteOffset":1776,
			"target":34962
		},
		{
			"buffer":0,
			"byteLength":1184,
			"byteOffset":3552,
			"target":34962
		},
		{
			"buffer":0,
			"byteLength":1512,
			"byteOffset":4736,
			"target":34963
		},
		{
			"buffer":0,
			"byteLength":2976,
			"byteOffset":6248,
			"target":34962
		},
		{
			"buffer":0,
			"byteLength":2976,
			"byteOffset":9224,
			"target":34962
		},
		{
			"buffer":0,
			"byteLength":1984,
			"byteOffset":12200,
			"target":34962
		},
		{
			"buffer":0,
			"byteLength":2664,
			"byteOffset":14184,
			"target":34963
		},
		{
			"buffer":0,
			"byteLength":3408,
			"byteOffset":16848,
			"target":34962
		},
		{
			"buffer":0,
			"byteLength":3408,
			"byteOffset":20256,
			"target":34962
		},
		{
			"buffer":0,
			"byteLength":2272,
			"byteOffset":23664,
			"target":34962
		},
		{
			"buffer":0,
			"byteLength":3096,
			"byteOffset":25936,
			"target":34963
		},
		{
			"buffer":0,
			"byteLength":2952,
			"byteOffset":29032,
			"target":34962
		},
		{
			"buffer":0,
			"byteLength":2952,
			"byteOffset":31984,
			"target":34962
		},
		{
			"buffer":0,
			"byteLength":1968,
			"byteOffset":34936,
			"target":34962
		},
		{
			"buffer":0,
			"byteLength":2652,
			"byteOffset":36904,
			"target":34963
		},
		{
			"buffer":0,
			"byteLength":2472,
			"byteOffset":39556,
			"target":34962
		},
		{
			"buffer":0,
			"byteLength":2472,
			"byteOffset":42028,
			"target":34962
		},
		{
			"buffer":0,
			"byteLength":1648,
			"byteOffset":44500,
			"target":34962
		},
		{
			"buffer":0,
			"byteLength":2232,
			"byteOffset":46148,
			"target":34963
		},
		{
			"buffer":0,
			"byteLength":3936,
			"byteOffset":48380,
			"target":34962
		},
		{
			"buffer":0,
			"byteLength":3936,
			"byteOffset":52316,
			"target":34962
		},
		{
			"buffer":0,
			"byteLength":2624,
			"byteOffset":56252,
			"target":34962
		},
		{
			"buffer":0,
			"byteLength":3624,
			"byteOffset":58876,
			"target":34963
		},
		{
			"buffer":0,
			"byteLength":3192,
			"byteOffset":62500,
			"target":34962
		},
		{
			"buffer":0,
			"byteLength":3192,
			"byteOffset":65692,
			"target":34962
		},
		{
			"buffer":0,
			"byteLength":2128,
			"byteOffset":68884,
			"target":34962
		},
		{
			"buffer":0,
			"byteLength":2940,
			"byteOffset":71012,
			"target":34963
		},
		{
			"buffer":0,
			"byteLength":2592,
			"byteOffset":73952,
			"target":34962
		},
		{
			"buffer":0,
			"byteLength":2592,
			"byteOffset":76544,
			"target":34962
		},
		{
			"buffer":0,
			"byteLength":1728,
			"byteOffset":79136,
			"target":34962
		},
		{
			"buffer":0,
			"byteLength":2292,
			"byteOffset":80864,
			"target":34963
		}
	],
	"buffers":[
		{
			"byteLength":83156,
			"uri":"helloo.bin"
		}
	]
}
