{
	"asset":{
		"generator":"Khronos glTF Blender I/O v4.2.69",
		"version":"2.0"
	},
	"scene":0,
	"scenes":[
		{
			"name":"Scene",
			"nodes":[
				0
			]
		}
	],
	"nodes":[
		{
			"mesh":0,
			"name":"EN_HouseMarket_BK_V2_OBJ"
		}
	],
	"meshes":[
		{
			"name":"EN_HouseMarket_BK_V2_OBJ",
			"primitives":[
				{
					"attributes":{
						"POSITION":0,
						"NORMAL":1,
						"TEXCOORD_0":2
					},
					"indices":3
				},
				{
					"attributes":{
						"POSITION":4,
						"NORMAL":5,
						"TEXCOORD_0":6
					},
					"indices":7
				}
			]
		}
	],
	"accessors":[
		{
			"bufferView":0,
			"componentType":5126,
			"count":21240,
			"max":[
				18.101842880249023,
				9.103724479675293,
				18.105091094970703
			],
			"min":[
				-8.36102294921875,
				1.1156980991363525,
				-4.88873291015625
			],
			"type":"VEC3"
		},
		{
			"bufferView":1,
			"componentType":5126,
			"count":21240,
			"type":"VEC3"
		},
		{
			"bufferView":2,
			"componentType":5126,
			"count":21240,
			"type":"VEC2"
		},
		{
			"bufferView":3,
			"componentType":5123,
			"count":48666,
			"type":"SCALAR"
		},
		{
			"bufferView":4,
			"componentType":5126,
			"count":1048,
			"max":[
				-0.4081439971923828,
				2.724310874938965,
				3.876373291015625
			],
			"min":[
				-2.8878555297851562,
				1.6021103858947754,
				1.5666351318359375
			],
			"type":"VEC3"
		},
		{
			"bufferView":5,
			"componentType":5126,
			"count":1048,
			"type":"VEC3"
		},
		{
			"bufferView":6,
			"componentType":5126,
			"count":1048,
			"type":"VEC2"
		},
		{
			"bufferView":7,
			"componentType":5123,
			"count":1854,
			"type":"SCALAR"
		}
	],
	"bufferViews":[
		{
			"buffer":0,
			"byteLength":254880,
			"byteOffset":0,
			"target":34962
		},
		{
			"buffer":0,
			"byteLength":254880,
			"byteOffset":254880,
			"target":34962
		},
		{
			"buffer":0,
			"byteLength":169920,
			"byteOffset":509760,
			"target":34962
		},
		{
			"buffer":0,
			"byteLength":97332,
			"byteOffset":679680,
			"target":34963
		},
		{
			"buffer":0,
			"byteLength":12576,
			"byteOffset":777012,
			"target":34962
		},
		{
			"buffer":0,
			"byteLength":12576,
			"byteOffset":789588,
			"target":34962
		},
		{
			"buffer":0,
			"byteLength":8384,
			"byteOffset":802164,
			"target":34962
		},
		{
			"buffer":0,
			"byteLength":3708,
			"byteOffset":810548,
			"target":34963
		}
	],
	"buffers":[
		{
			"byteLength":814256,
			"uri":"houses.bin"
		}
	]
}
