{
	"asset":{
		"generator":"Khronos glTF Blender I/O v4.2.69",
		"version":"2.0"
	},
	"scene":0,
	"scenes":[
		{
			"name":"Scene",
			"nodes":[
				0
			]
		}
	],
	"nodes":[
		{
			"mesh":0,
			"name":"SM_Cube5"
		}
	],
	"materials":[
		{
			"doubleSided":true,
			"name":"Material",
			"pbrMetallicRoughness":{
				"metallicFactor":0,
				"roughnessFactor":0.5
			}
		}
	],
	"meshes":[
		{
			"name":"SM_Cube_Vas",
			"primitives":[
				{
					"attributes":{
						"POSITION":0,
						"NORMAL":1,
						"TEXCOORD_0":2,
						"TEXCOORD_1":3
					},
					"indices":4,
					"material":0
				}
			]
		}
	],
	"accessors":[
		{
			"bufferView":0,
			"componentType":5126,
			"count":42552,
			"max":[
				71.42648315429688,
				18.256866455078125,
				157.38955688476562
			],
			"min":[
				-178.52066040039062,
				-22.77623748779297,
				-58.83216094970703
			],
			"type":"VEC3"
		},
		{
			"bufferView":1,
			"componentType":5126,
			"count":42552,
			"type":"VEC3"
		},
		{
			"bufferView":2,
			"componentType":5126,
			"count":42552,
			"type":"VEC2"
		},
		{
			"bufferView":3,
			"componentType":5126,
			"count":42552,
			"type":"VEC2"
		},
		{
			"bufferView":4,
			"componentType":5123,
			"count":84696,
			"type":"SCALAR"
		}
	],
	"bufferViews":[
		{
			"buffer":0,
			"byteLength":510624,
			"byteOffset":0,
			"target":34962
		},
		{
			"buffer":0,
			"byteLength":510624,
			"byteOffset":510624,
			"target":34962
		},
		{
			"buffer":0,
			"byteLength":340416,
			"byteOffset":1021248,
			"target":34962
		},
		{
			"buffer":0,
			"byteLength":340416,
			"byteOffset":1361664,
			"target":34962
		},
		{
			"buffer":0,
			"byteLength":169392,
			"byteOffset":1702080,
			"target":34963
		}
	],
	"buffers":[
		{
			"byteLength":1871472,
			"uri":"LVL1-BLOCKOUT.bin"
		}
	]
}
