{
    "asset" : {
        "generator" : "Khronos glTF Blender I/O v1.5.17",
        "version" : "2.0"
    },
    "scene" : 0,
    "scenes" : [
        {
            "name" : "Scene",
            "nodes" : [
                0,
                1,
                2,
                3,
                4,
                5,
                6,
                7
            ]
        }
    ],
    "nodes" : [
        {
            "mesh" : 0,
            "name" : "enviro_totem1__LP",
            "rotation" : [
                0.7071068286895752,
                0,
                0,
                0.7071067094802856
            ],
            "scale" : [
                0.009999999776482582,
                0.009999999776482582,
                0.009999999776482582
            ]
        },
        {
            "mesh" : 1,
            "name" : "enviro_totem4__LP",
            "rotation" : [
                0.7071068286895752,
                0,
                0,
                0.7071067094802856
            ],
            "scale" : [
                0.009999999776482582,
                0.009999999776482582,
                0.009999999776482582
            ]
        },
        {
            "mesh" : 2,
            "name" : "enviro_totem5__LP",
            "rotation" : [
                0.7071068286895752,
                0,
                0,
                0.7071067094802856
            ],
            "scale" : [
                0.009999999776482582,
                0.009999999776482582,
                0.009999999776482582
            ]
        },
        {
            "mesh" : 3,
            "name" : "enviro_totem3__LP",
            "rotation" : [
                0.7071068286895752,
                0,
                0,
                0.7071067094802856
            ],
            "scale" : [
                0.009999999776482582,
                0.009999999776482582,
                0.009999999776482582
            ]
        },
        {
            "mesh" : 4,
            "name" : "enviro_totemHead1__LP",
            "rotation" : [
                0.7071068286895752,
                0,
                0,
                0.7071067094802856
            ],
            "scale" : [
                0.009999999776482582,
                0.009999999776482582,
                0.009999999776482582
            ]
        },
        {
            "mesh" : 5,
            "name" : "enviro_totemHead2__LP",
            "rotation" : [
                0.7071068286895752,
                0,
                0,
                0.7071067094802856
            ],
            "scale" : [
                0.009999999776482582,
                0.009999999776482582,
                0.009999999776482582
            ]
        },
        {
            "mesh" : 6,
            "name" : "enviro_totemHead3__LP",
            "rotation" : [
                0.7071068286895752,
                0,
                0,
                0.7071067094802856
            ],
            "scale" : [
                0.009999999776482582,
                0.009999999776482582,
                0.009999999776482582
            ]
        },
        {
            "mesh" : 7,
            "name" : "enviro_totem2__LP",
            "rotation" : [
                0.7071068286895752,
                0,
                0,
                0.7071067094802856
            ],
            "scale" : [
                0.009999999776482582,
                0.009999999776482582,
                0.009999999776482582
            ]
        }
    ],
    "materials" : [
        {
            "doubleSided" : true,
            "name" : "M_EN_Totem",
            "pbrMetallicRoughness" : {
                "baseColorFactor" : [
                    0.5,
                    0.5,
                    0.5,
                    1
                ],
                "metallicFactor" : 0,
                "roughnessFactor" : 0.5527864098548889
            }
        }
    ],
    "meshes" : [
        {
            "name" : "Mesh",
            "primitives" : [
                {
                    "attributes" : {
                        "POSITION" : 0,
                        "NORMAL" : 1,
                        "TEXCOORD_0" : 2
                    },
                    "indices" : 3,
                    "material" : 0
                }
            ]
        },
        {
            "name" : "Mesh.001",
            "primitives" : [
                {
                    "attributes" : {
                        "POSITION" : 4,
                        "NORMAL" : 5,
                        "TEXCOORD_0" : 6
                    },
                    "indices" : 7,
                    "material" : 0
                }
            ]
        },
        {
            "name" : "Mesh.002",
            "primitives" : [
                {
                    "attributes" : {
                        "POSITION" : 8,
                        "NORMAL" : 9,
                        "TEXCOORD_0" : 10
                    },
                    "indices" : 11,
                    "material" : 0
                }
            ]
        },
        {
            "name" : "Mesh.003",
            "primitives" : [
                {
                    "attributes" : {
                        "POSITION" : 12,
                        "NORMAL" : 13,
                        "TEXCOORD_0" : 14
                    },
                    "indices" : 15,
                    "material" : 0
                }
            ]
        },
        {
            "name" : "Mesh.004",
            "primitives" : [
                {
                    "attributes" : {
                        "POSITION" : 16,
                        "NORMAL" : 17,
                        "TEXCOORD_0" : 18
                    },
                    "indices" : 19,
                    "material" : 0
                }
            ]
        },
        {
            "name" : "Mesh.005",
            "primitives" : [
                {
                    "attributes" : {
                        "POSITION" : 20,
                        "NORMAL" : 21,
                        "TEXCOORD_0" : 22
                    },
                    "indices" : 23,
                    "material" : 0
                }
            ]
        },
        {
            "name" : "Mesh.006",
            "primitives" : [
                {
                    "attributes" : {
                        "POSITION" : 24,
                        "NORMAL" : 25,
                        "TEXCOORD_0" : 26
                    },
                    "indices" : 27,
                    "material" : 0
                }
            ]
        },
        {
            "name" : "Mesh.007",
            "primitives" : [
                {
                    "attributes" : {
                        "POSITION" : 28,
                        "NORMAL" : 29,
                        "TEXCOORD_0" : 30
                    },
                    "indices" : 31,
                    "material" : 0
                }
            ]
        }
    ],
    "accessors" : [
        {
            "bufferView" : 0,
            "componentType" : 5126,
            "count" : 148,
            "max" : [
                66.4027099609375,
                59.89423370361328,
                -1.9415535926818848
            ],
            "min" : [
                -48.79803466796875,
                -59.89423370361328,
                -220.28067016601562
            ],
            "type" : "VEC3"
        },
        {
            "bufferView" : 1,
            "componentType" : 5126,
            "count" : 148,
            "type" : "VEC3"
        },
        {
            "bufferView" : 2,
            "componentType" : 5126,
            "count" : 148,
            "type" : "VEC2"
        },
        {
            "bufferView" : 3,
            "componentType" : 5123,
            "count" : 756,
            "type" : "SCALAR"
        },
        {
            "bufferView" : 4,
            "componentType" : 5126,
            "count" : 248,
            "max" : [
                42.220062255859375,
                45.844200134277344,
                5.08427619934082
            ],
            "min" : [
                -42.220062255859375,
                -45.844200134277344,
                -109.43893432617188
            ],
            "type" : "VEC3"
        },
        {
            "bufferView" : 5,
            "componentType" : 5126,
            "count" : 248,
            "type" : "VEC3"
        },
        {
            "bufferView" : 6,
            "componentType" : 5126,
            "count" : 248,
            "type" : "VEC2"
        },
        {
            "bufferView" : 7,
            "componentType" : 5123,
            "count" : 1332,
            "type" : "SCALAR"
        },
        {
            "bufferView" : 8,
            "componentType" : 5126,
            "count" : 284,
            "max" : [
                34.08917236328125,
                37.47614288330078,
                1.6902580261230469
            ],
            "min" : [
                -34.08917236328125,
                -36.726036071777344,
                -99.2856216430664
            ],
            "type" : "VEC3"
        },
        {
            "bufferView" : 9,
            "componentType" : 5126,
            "count" : 284,
            "type" : "VEC3"
        },
        {
            "bufferView" : 10,
            "componentType" : 5126,
            "count" : 284,
            "type" : "VEC2"
        },
        {
            "bufferView" : 11,
            "componentType" : 5123,
            "count" : 1548,
            "type" : "SCALAR"
        },
        {
            "bufferView" : 12,
            "componentType" : 5126,
            "count" : 246,
            "max" : [
                48.630706787109375,
                40.0474967956543,
                -1.4509363174438477
            ],
            "min" : [
                -48.63069152832031,
                -40.0474967956543,
                -119.32640075683594
            ],
            "type" : "VEC3"
        },
        {
            "bufferView" : 13,
            "componentType" : 5126,
            "count" : 246,
            "type" : "VEC3"
        },
        {
            "bufferView" : 14,
            "componentType" : 5126,
            "count" : 246,
            "type" : "VEC2"
        },
        {
            "bufferView" : 15,
            "componentType" : 5123,
            "count" : 1326,
            "type" : "SCALAR"
        },
        {
            "bufferView" : 16,
            "componentType" : 5126,
            "count" : 206,
            "max" : [
                48.26335525512695,
                51.30233383178711,
                7.670684814453125
            ],
            "min" : [
                -48.26335525512695,
                -51.30233383178711,
                -34.783538818359375
            ],
            "type" : "VEC3"
        },
        {
            "bufferView" : 17,
            "componentType" : 5126,
            "count" : 206,
            "type" : "VEC3"
        },
        {
            "bufferView" : 18,
            "componentType" : 5126,
            "count" : 206,
            "type" : "VEC2"
        },
        {
            "bufferView" : 19,
            "componentType" : 5123,
            "count" : 1116,
            "type" : "SCALAR"
        },
        {
            "bufferView" : 20,
            "componentType" : 5126,
            "count" : 328,
            "max" : [
                43.23240661621094,
                42.83023452758789,
                4.6140899658203125
            ],
            "min" : [
                -43.23240661621094,
                -42.83023452758789,
                -48.743408203125
            ],
            "type" : "VEC3"
        },
        {
            "bufferView" : 21,
            "componentType" : 5126,
            "count" : 328,
            "type" : "VEC3"
        },
        {
            "bufferView" : 22,
            "componentType" : 5126,
            "count" : 328,
            "type" : "VEC2"
        },
        {
            "bufferView" : 23,
            "componentType" : 5123,
            "count" : 1812,
            "type" : "SCALAR"
        },
        {
            "bufferView" : 24,
            "componentType" : 5126,
            "count" : 266,
            "max" : [
                44.04528045654297,
                50.201080322265625,
                4.748203277587891
            ],
            "min" : [
                -44.04528045654297,
                -50.201080322265625,
                -61.011444091796875
            ],
            "type" : "VEC3"
        },
        {
            "bufferView" : 25,
            "componentType" : 5126,
            "count" : 266,
            "type" : "VEC3"
        },
        {
            "bufferView" : 26,
            "componentType" : 5126,
            "count" : 266,
            "type" : "VEC2"
        },
        {
            "bufferView" : 27,
            "componentType" : 5123,
            "count" : 1470,
            "type" : "SCALAR"
        },
        {
            "bufferView" : 28,
            "componentType" : 5126,
            "count" : 216,
            "max" : [
                43.36524963378906,
                47.97993850708008,
                -4.283583641052246
            ],
            "min" : [
                -43.36524963378906,
                -47.97993850708008,
                -147.77392578125
            ],
            "type" : "VEC3"
        },
        {
            "bufferView" : 29,
            "componentType" : 5126,
            "count" : 216,
            "type" : "VEC3"
        },
        {
            "bufferView" : 30,
            "componentType" : 5126,
            "count" : 216,
            "type" : "VEC2"
        },
        {
            "bufferView" : 31,
            "componentType" : 5123,
            "count" : 1146,
            "type" : "SCALAR"
        }
    ],
    "bufferViews" : [
        {
            "buffer" : 0,
            "byteLength" : 1776,
            "byteOffset" : 0
        },
        {
            "buffer" : 0,
            "byteLength" : 1776,
            "byteOffset" : 1776
        },
        {
            "buffer" : 0,
            "byteLength" : 1184,
            "byteOffset" : 3552
        },
        {
            "buffer" : 0,
            "byteLength" : 1512,
            "byteOffset" : 4736
        },
        {
            "buffer" : 0,
            "byteLength" : 2976,
            "byteOffset" : 6248
        },
        {
            "buffer" : 0,
            "byteLength" : 2976,
            "byteOffset" : 9224
        },
        {
            "buffer" : 0,
            "byteLength" : 1984,
            "byteOffset" : 12200
        },
        {
            "buffer" : 0,
            "byteLength" : 2664,
            "byteOffset" : 14184
        },
        {
            "buffer" : 0,
            "byteLength" : 3408,
            "byteOffset" : 16848
        },
        {
            "buffer" : 0,
            "byteLength" : 3408,
            "byteOffset" : 20256
        },
        {
            "buffer" : 0,
            "byteLength" : 2272,
            "byteOffset" : 23664
        },
        {
            "buffer" : 0,
            "byteLength" : 3096,
            "byteOffset" : 25936
        },
        {
            "buffer" : 0,
            "byteLength" : 2952,
            "byteOffset" : 29032
        },
        {
            "buffer" : 0,
            "byteLength" : 2952,
            "byteOffset" : 31984
        },
        {
            "buffer" : 0,
            "byteLength" : 1968,
            "byteOffset" : 34936
        },
        {
            "buffer" : 0,
            "byteLength" : 2652,
            "byteOffset" : 36904
        },
        {
            "buffer" : 0,
            "byteLength" : 2472,
            "byteOffset" : 39556
        },
        {
            "buffer" : 0,
            "byteLength" : 2472,
            "byteOffset" : 42028
        },
        {
            "buffer" : 0,
            "byteLength" : 1648,
            "byteOffset" : 44500
        },
        {
            "buffer" : 0,
            "byteLength" : 2232,
            "byteOffset" : 46148
        },
        {
            "buffer" : 0,
            "byteLength" : 3936,
            "byteOffset" : 48380
        },
        {
            "buffer" : 0,
            "byteLength" : 3936,
            "byteOffset" : 52316
        },
        {
            "buffer" : 0,
            "byteLength" : 2624,
            "byteOffset" : 56252
        },
        {
            "buffer" : 0,
            "byteLength" : 3624,
            "byteOffset" : 58876
        },
        {
            "buffer" : 0,
            "byteLength" : 3192,
            "byteOffset" : 62500
        },
        {
            "buffer" : 0,
            "byteLength" : 3192,
            "byteOffset" : 65692
        },
        {
            "buffer" : 0,
            "byteLength" : 2128,
            "byteOffset" : 68884
        },
        {
            "buffer" : 0,
            "byteLength" : 2940,
            "byteOffset" : 71012
        },
        {
            "buffer" : 0,
            "byteLength" : 2592,
            "byteOffset" : 73952
        },
        {
            "buffer" : 0,
            "byteLength" : 2592,
            "byteOffset" : 76544
        },
        {
            "buffer" : 0,
            "byteLength" : 1728,
            "byteOffset" : 79136
        },
        {
            "buffer" : 0,
            "byteLength" : 2292,
            "byteOffset" : 80864
        }
    ],
    "buffers" : [
        {
            "byteLength" : 83156,
            "uri" : "PR_totem.bin"
        }
    ]
}
